<svg width="24" height="24" viewBox="0 0 24 24" fill="none" xmlns="http://www.w3.org/2000/svg">
<path d="M14.2969 5.95312H9.64219H9.48281C6.07969 7.37813 3.60938 11.6203 3.60938 16.6313C3.60938 22.8141 7.36406 23.3063 12 23.3063C16.6313 23.3063 20.3906 22.8141 20.3906 16.6313C20.3906 11.6203 17.7 7.37813 14.2969 5.95312ZM14.2453 18.5672C13.8703 18.9656 13.3547 19.2281 12.7125 19.3453V20.1188C12.7125 20.4141 12.4734 20.6484 12.1781 20.6484C11.8828 20.6484 11.6437 20.4094 11.6437 20.1188V19.4063C10.0828 19.3172 9.08906 18.4453 9.08906 17.8828C9.08906 17.6063 9.3375 17.25 9.6 17.25C9.73125 17.25 9.85313 17.3625 10.0219 17.5219C10.3172 17.7984 10.7578 18.2203 11.6437 18.3094V14.7281C11.0859 14.5313 10.5516 14.3297 10.125 13.9828C9.59062 13.5516 9.32812 12.9703 9.32812 12.2016C9.32812 11.4281 9.59531 10.8187 10.125 10.4016C10.6031 10.0219 11.2125 9.87656 11.6437 9.82031V9.13594C11.6437 8.84063 11.8828 8.60625 12.1781 8.60625C12.4734 8.60625 12.7125 8.84531 12.7125 9.13594V9.7875C13.1672 9.82031 13.6078 9.90938 13.95 10.0359C14.4188 10.2047 14.6625 10.4297 14.6625 10.6828C14.6625 10.8984 14.4844 11.3156 14.1609 11.3156C14.0531 11.3156 13.9359 11.2547 13.7859 11.1797C13.5469 11.0578 13.2234 10.8938 12.7078 10.8375V13.9078C13.2188 14.1047 13.8 14.3625 14.2266 14.8031C14.6812 15.2719 14.9016 15.8813 14.9016 16.6734C14.9062 17.4563 14.6812 18.0984 14.2453 18.5672Z" fill="#F7941E"/>
<path d="M14.2969 5.60158C13.0922 5.60158 11.8828 5.60158 10.6781 5.60158C10.4062 5.60158 10.1344 5.60158 9.8578 5.60158C9.72186 5.60158 9.56717 5.58283 9.43123 5.60627C9.18748 5.64846 8.92498 5.81721 8.70467 5.92971C8.49373 6.04221 8.2828 6.16877 8.08123 6.30002C7.6453 6.59065 7.2328 6.92346 6.85311 7.28908C5.18436 8.88752 4.12499 11.0719 3.62342 13.3078C3.33749 14.5735 3.21561 15.8813 3.26717 17.1797C3.30936 18.2203 3.45936 19.275 3.86717 20.2407C4.17655 20.9766 4.63592 21.6469 5.25936 22.1532C5.87342 22.65 6.58592 22.9875 7.3453 23.2078C9.06092 23.7 10.9219 23.6813 12.6937 23.6578C14.3859 23.6344 16.1812 23.5453 17.7328 22.8C19.2844 22.05 20.1937 20.5922 20.5312 18.9375C21.0187 16.5422 20.7047 13.9125 19.8234 11.6438C19.0078 9.54846 17.6578 7.61721 15.7734 6.35627C15.3609 6.07971 14.9297 5.84533 14.475 5.65315C14.2969 5.57815 14.1 5.60158 13.9922 5.77971C13.9031 5.92502 13.9453 6.18752 14.1187 6.26252C17.5453 7.71565 19.5328 11.4844 19.9453 15.0422C20.1422 16.7344 20.1422 18.6844 19.364 20.2453C18.8109 21.3516 17.864 22.0828 16.7062 22.4625C15.375 22.8938 13.9453 22.95 12.5578 22.9641C11.114 22.9782 9.6328 22.9875 8.21248 22.7016C7.02655 22.4625 5.89217 21.9891 5.12342 21.0282C4.14374 19.8 3.95624 18.0891 3.96561 16.5703C3.98436 12.9422 5.39061 8.85471 8.59217 6.82971C8.93436 6.61408 9.29061 6.42658 9.66092 6.2719C9.59998 6.28596 9.54373 6.30471 9.4828 6.31877C10.8844 6.31408 12.2812 6.31877 13.6828 6.31877C13.889 6.31877 14.0953 6.31877 14.3015 6.31877C14.7515 6.30471 14.7515 5.60158 14.2969 5.60158Z" fill="#020202"/>
<path d="M14.1703 4.44377H9.83437C9.31875 3.43127 8.55469 1.61253 9.24375 0.923463C10.2094 -0.0468486 11.9531 2.3719 12 2.43752C12 2.43752 13.7766 -0.0609111 14.7562 0.923463C15.45 1.61253 14.6812 3.43127 14.1703 4.44377Z" fill="#F7941E"/>
<path d="M14.1703 4.09218C12.9094 4.09218 11.6484 4.09218 10.3875 4.09218C10.2047 4.09218 10.0219 4.09218 9.83437 4.09218C9.93749 4.14843 10.0359 4.20937 10.1391 4.26562C9.86718 3.72656 9.62343 3.17343 9.45937 2.59218C9.34687 2.19374 9.16874 1.53749 9.47811 1.18593C9.58593 1.05937 9.67968 1.04062 9.8203 1.04531C9.84843 1.04531 9.94218 1.06406 10.0219 1.09218C10.1016 1.12031 10.1719 1.15312 10.2609 1.20468C10.6359 1.42031 10.95 1.72968 11.2359 2.04843C11.3625 2.18906 11.4844 2.33437 11.6016 2.48437C11.6625 2.55937 11.5922 2.47499 11.6203 2.50781C11.6344 2.52656 11.6531 2.54999 11.6672 2.56874C11.6953 2.60624 11.7234 2.65312 11.7562 2.68593C11.9297 2.85937 12.1781 2.79843 12.3094 2.61562C12.3187 2.60156 12.3281 2.59218 12.3328 2.57812C12.3516 2.54999 12.4406 2.43749 12.3797 2.51249C12.4781 2.38593 12.5766 2.26406 12.6844 2.14687C12.9562 1.83281 13.2562 1.52343 13.6031 1.29374C13.7719 1.18124 13.9125 1.10624 14.0953 1.05937C14.2078 1.03124 14.3344 1.03593 14.4328 1.10156C14.7797 1.33124 14.7047 1.92656 14.6203 2.31093C14.4703 2.99531 14.1844 3.64218 13.8703 4.26562C13.6687 4.66874 14.2734 5.02499 14.4797 4.62187C14.8078 3.97499 15.1078 3.29999 15.2766 2.59218C15.4219 1.97812 15.5062 1.20937 15.0469 0.707806C14.2031 -0.206257 12.9937 0.782806 12.375 1.43906C12.1312 1.69687 11.9016 1.97343 11.6953 2.25937C11.8781 2.23593 12.0656 2.21249 12.2484 2.18906C12.3609 2.30156 12.2859 2.24062 12.2578 2.19843C12.2062 2.12812 12.15 2.05781 12.0937 1.98749C11.9719 1.83281 11.8453 1.68281 11.7141 1.53749C11.3719 1.15781 10.9781 0.782806 10.5187 0.548431C10.0453 0.309368 9.50155 0.248431 9.07499 0.604681C8.56405 1.03124 8.57343 1.74843 8.68124 2.34843C8.82655 3.14531 9.16874 3.90468 9.52968 4.62187C9.58593 4.72968 9.71718 4.79531 9.83437 4.79531C11.0953 4.79531 12.3562 4.79531 13.6172 4.79531C13.8 4.79531 13.9828 4.79531 14.1703 4.79531C14.6203 4.79531 14.6203 4.09218 14.1703 4.09218Z" fill="#020202"/>
<path d="M15.6703 5.19841C15.6703 5.40935 15.5859 5.59685 15.45 5.73279C15.3141 5.86873 15.1266 5.9531 14.9156 5.9531H9.10781C8.69062 5.9531 8.35312 5.6156 8.35312 5.19841C8.35312 4.98748 8.43749 4.79998 8.57343 4.66404C8.70937 4.5281 8.89687 4.44373 9.10781 4.44373H14.9109C15.3281 4.44373 15.6703 4.78123 15.6703 5.19841Z" fill="#FBB040"/>
<path d="M15.3187 5.19842C15.2953 5.66717 14.8125 5.60155 14.4843 5.60155C13.9828 5.60155 13.4812 5.60155 12.9797 5.60155C11.85 5.60155 10.725 5.60155 9.5953 5.60155C9.34217 5.60155 8.9578 5.67186 8.78436 5.43748C8.57811 5.15623 8.8078 4.81405 9.12186 4.7953C9.2203 4.79061 9.31873 4.7953 9.41717 4.7953C10.5 4.7953 11.5781 4.7953 12.6609 4.7953C13.2515 4.7953 13.8375 4.7953 14.4281 4.7953C14.7656 4.7953 15.2953 4.71092 15.3187 5.19842C15.3375 5.64842 16.0406 5.65311 16.0218 5.19842C15.9984 4.64061 15.6093 4.16717 15.0422 4.10155C14.9297 4.08748 14.8218 4.09217 14.7093 4.09217C14.2218 4.09217 13.7297 4.09217 13.2422 4.09217C11.9906 4.09217 10.7437 4.09217 9.49217 4.09217C9.3703 4.09217 9.25311 4.08748 9.13124 4.09217C8.68124 4.10155 8.27342 4.3453 8.0953 4.76717C7.87967 5.27811 8.08592 5.88748 8.57342 6.16405C8.77499 6.27655 8.9953 6.30467 9.2203 6.30467C10.3547 6.30467 11.4844 6.30467 12.6187 6.30467C13.2562 6.30467 13.8984 6.30467 14.5359 6.30467C14.6578 6.30467 14.7843 6.30936 14.9062 6.30467C15.5343 6.28592 15.989 5.82186 16.0218 5.19842C16.0406 4.74373 15.3375 4.74373 15.3187 5.19842Z" fill="#020202"/>
<ellipse cx="11.5" cy="15" rx="4.5" ry="7" fill="#F7941E"/>
<path d="M9.00789 18.3486L9.42172 19.3469C10.0614 19.134 11.1036 18.8334 11.4167 18.8334C11.8706 18.8334 12.2086 18.946 12.5997 19.076C13.0195 19.2163 13.4956 19.375 14.125 19.375C14.7626 19.375 15.7923 18.8761 15.9921 18.7765L15.5073 17.8074C15.1168 18.0024 14.4072 18.2917 14.125 18.2917C13.6711 18.2917 13.3331 18.179 12.942 18.049C12.5222 17.9087 12.0461 17.75 11.4167 17.75C11.2926 17.75 11.1318 17.7701 10.9525 17.8036C11.2553 17.1813 11.4167 16.4289 11.4167 15.5834H13.0417V14.5H11.2141C11.1913 14.4421 11.1686 14.383 11.1464 14.3283C11.0066 13.9865 10.875 13.6631 10.875 12.875C10.875 12.1335 11.1572 11.25 12.5 11.25C13.7047 11.25 14.1364 12.4563 14.1532 12.5045L15.1802 12.1616C15.1531 12.0804 14.4928 10.1667 12.5 10.1667C10.5029 10.1667 9.79168 11.5658 9.79168 12.875C9.79168 13.6826 9.91843 14.1479 10.0506 14.5H8.70834V15.5834H10.3333C10.3333 16.9196 9.85018 17.9277 9.00789 18.3486Z" fill="black"/>
</svg>
