<svg width="17" height="21" viewBox="0 0 17 21" fill="none" xmlns="http://www.w3.org/2000/svg">
<path d="M13.4896 11.0461C13.481 9.47299 14.1926 8.28563 15.6328 7.41119C14.827 6.25812 13.6096 5.62372 12.0022 5.49941C10.4805 5.37939 8.81732 6.38671 8.20864 6.38671C7.56566 6.38671 6.09111 5.54227 4.93375 5.54227C2.54189 5.58085 0 7.44976 0 11.2519C0 12.3749 0.205752 13.5352 0.617255 14.7325C1.16593 16.3057 3.14629 20.1635 5.21238 20.0992C6.29257 20.0735 7.05557 19.3319 8.46154 19.3319C9.82465 19.3319 10.5319 20.0992 11.7364 20.0992C13.8197 20.0692 15.6114 16.5628 16.1344 14.9854C13.3396 13.6695 13.4896 11.1276 13.4896 11.0461ZM11.0634 4.00771C12.2337 2.61889 12.1265 1.35437 12.0922 0.900002C11.0592 0.960012 9.86322 1.60299 9.18167 2.39599C8.43153 3.24471 7.99003 4.2949 8.08433 5.47798C9.2031 5.56371 10.2233 4.98932 11.0634 4.00771Z" fill="white"/>
</svg>
