<svg width="10" height="16" viewBox="0 0 10 16" fill="none" xmlns="http://www.w3.org/2000/svg">
<path d="M8.85 0.491667C8.75324 0.39466 8.63829 0.317696 8.51174 0.265183C8.38519 0.212669 8.24952 0.185638 8.1125 0.185638C7.97549 0.185638 7.83982 0.212669 7.71327 0.265183C7.58671 0.317696 7.47177 0.39466 7.375 0.491667L0.450002 7.41667C0.372749 7.49376 0.31146 7.58533 0.269642 7.68615C0.227824 7.78696 0.206299 7.89503 0.206299 8.00417C0.206299 8.11331 0.227824 8.22137 0.269642 8.32219C0.31146 8.423 0.372749 8.51457 0.450002 8.59167L7.375 15.5167C7.78334 15.925 8.44167 15.925 8.85 15.5167C9.25834 15.1083 9.25834 14.45 8.85 14.0417L2.81667 8L8.85834 1.95833C9.25834 1.55833 9.25834 0.891667 8.85 0.491667Z" fill="white"/>
</svg>
