<svg width="24" height="24" viewBox="0 0 24 24" fill="none" xmlns="http://www.w3.org/2000/svg">
<path d="M12.6749 2.71123L12.2999 3.23998C12.2549 3.30373 12.2324 3.37498 12.2324 3.44998V4.52248C12.1912 4.51873 12.1499 4.51123 12.1049 4.51123C12.0637 4.51123 12.0224 4.51873 11.9812 4.52248V3.44998C11.9812 3.37498 11.9549 3.30373 11.9137 3.23998L11.5387 2.71123L12.1049 1.32373L12.6749 2.71123Z" fill="#4FBEE6"/>
<path d="M3.77623 16.6163C2.29873 16.6163 1.07248 15.6863 0.862481 14.4788H6.68998C6.48373 15.6863 5.25748 16.6163 3.77623 16.6163ZM6.56248 13.7512H0.986231L3.77998 6.12L6.56248 13.7512ZM12.105 1.32375L12.675 2.71125L12.3 3.24C12.255 3.30375 12.2325 3.375 12.2325 3.45V4.5225C12.1912 4.51875 12.15 4.51125 12.105 4.51125C12.0637 4.51125 12.0225 4.51875 11.9812 4.5225V3.45C11.9812 3.375 11.955 3.30375 11.9137 3.24L11.5387 2.71125L12.105 1.32375ZM12.5512 5.68125C12.5512 5.925 12.3525 6.12375 12.105 6.12375C11.8612 6.12375 11.6625 5.925 11.6625 5.68125C11.6625 5.4375 11.8612 5.235 12.105 5.235C12.3525 5.235 12.5512 5.4375 12.5512 5.68125ZM20.22 8.08125L23.0062 15.7125H17.4337L20.22 8.08125ZM20.22 18.5775C18.7425 18.5775 17.5162 17.6475 17.31 16.44H23.1337C22.9275 17.6475 21.7012 18.5775 20.22 18.5775ZM23.8575 15.9225L20.715 7.31625C21.3 7.11375 21.7237 6.57375 21.735 5.9175C21.7387 5.71875 21.5775 5.55 21.3787 5.54625C21.375 5.54625 21.375 5.54625 21.3712 5.54625C21.1725 5.54625 21.0112 5.7075 21.0075 5.9025C21 6.33375 20.655 6.67125 20.2125 6.67875C19.9537 6.67875 19.71 6.5475 19.5637 6.33C19.5075 6.24 19.4137 6.18375 19.3125 6.16875L13.2225 5.34C13.17 5.1675 13.08 5.01375 12.96 4.8825V3.56625L13.3837 2.97C13.455 2.86875 13.47 2.7375 13.4212 2.62125L12.4425 0.225C12.3862 0.09 12.255 0 12.105 0C11.9587 0 11.8237 0.09 11.7675 0.225L10.7887 2.62125C10.7437 2.7375 10.7587 2.86875 10.83 2.97L11.2537 3.56625V4.8825C11.2012 4.935 11.16 4.995 11.1187 5.055L4.77748 4.18875C4.63873 4.16625 4.49998 4.23375 4.42498 4.35375C4.28248 4.57125 4.04248 4.7025 3.77998 4.7025C3.36748 4.7025 3.01873 4.37625 2.98873 3.9675C2.97748 3.765 2.80123 3.61875 2.60248 3.63C2.39998 3.645 2.24998 3.8175 2.26498 4.02C2.30998 4.63875 2.72998 5.14875 3.28873 5.34L0.12748 13.9875C0.11248 14.0212 0.11248 14.0588 0.10873 14.0963C0.10873 14.1 0.10498 14.1075 0.10498 14.115V14.1188C0.10498 14.1263 0.10498 14.1337 0.10873 14.1412C0.12373 15.9112 1.76248 17.3438 3.77623 17.3438C5.80123 17.3438 7.44748 15.8962 7.44748 14.115C7.44748 14.0588 7.43623 14.01 7.41373 13.9613L4.26748 5.34C4.50373 5.2575 4.72123 5.12625 4.88998 4.93875L10.9425 5.76375C10.9612 6.01875 11.0587 6.2475 11.2125 6.4275L10.7812 21.2738C9.73873 21.4275 7.54123 21.945 7.17748 23.5575C7.15498 23.6625 7.18123 23.775 7.24873 23.8612C7.31998 23.9475 7.42123 24 7.53373 24H16.68C16.7887 24 16.8937 23.9475 16.9612 23.8612C17.0325 23.775 17.0587 23.6625 17.0325 23.5575C16.6725 21.945 14.475 21.4275 13.4287 21.2738L13.0012 6.4275C13.0875 6.3225 13.1587 6.20625 13.2037 6.075L19.065 6.87C19.2412 7.08 19.47 7.2225 19.725 7.3125L16.5787 15.9338C16.5787 15.9338 16.5787 15.9375 16.5787 15.9412L16.575 15.9525C16.5675 15.9637 16.5712 15.975 16.5675 15.9862C16.56 16.0163 16.5487 16.0462 16.5487 16.0763C16.5487 17.8575 18.1987 19.305 20.22 19.305C22.245 19.305 23.895 17.8575 23.895 16.0763C23.895 16.02 23.88 15.9712 23.8575 15.9225ZM13.035 21.9525C13.305 21.9825 15.4237 22.2488 16.1287 23.2725H8.08498C8.78623 22.2488 10.9087 21.9825 11.175 21.9525C11.3587 21.9338 11.4937 21.7838 11.5012 21.6038L11.9287 6.8325C11.985 6.84375 12.045 6.85125 12.105 6.85125C12.165 6.85125 12.225 6.84375 12.285 6.8325L12.7125 21.6038C12.7162 21.7838 12.855 21.9338 13.035 21.9525Z" fill="#2B2F64"/>
<path d="M16.1287 23.2725H8.08496C8.78621 22.2488 10.9087 21.9825 11.175 21.9525C11.3587 21.9338 11.4937 21.7838 11.5012 21.6038L11.9287 6.83252C11.985 6.84377 12.045 6.85127 12.105 6.85127C12.165 6.85127 12.225 6.84377 12.285 6.83252L12.7125 21.6038C12.7162 21.7838 12.855 21.9338 13.035 21.9525C13.305 21.9825 15.4237 22.2488 16.1287 23.2725Z" fill="#4FBEE6"/>
<path d="M23.1338 16.44C22.9275 17.6475 21.7013 18.5775 20.22 18.5775C18.7425 18.5775 17.5163 17.6475 17.31 16.44H23.1338ZM6.69005 14.4787C6.4838 15.6862 5.25755 16.6162 3.7763 16.6162C2.2988 16.6162 1.07255 15.6862 0.862549 14.4787H6.69005ZM12.5513 5.68124C12.5513 5.92499 12.3525 6.12374 12.105 6.12374C11.8613 6.12374 11.6625 5.92499 11.6625 5.68124C11.6625 5.43749 11.8613 5.23499 12.105 5.23499C12.3525 5.23499 12.5513 5.43749 12.5513 5.68124Z" fill="#FFDC7D"/>
<path d="M16.1287 23.2725H15.1087C14.5837 22.5075 13.0012 22.3088 12.7987 22.2863C12.6675 22.275 12.5625 22.1625 12.5587 22.0275L12.24 11.01C12.195 11.0175 12.15 11.025 12.105 11.025C12.0637 11.025 12.0187 11.0175 11.9737 11.01L11.655 22.0275C11.6512 22.1625 11.55 22.275 11.4112 22.2863C11.2162 22.3088 9.62996 22.5075 9.10871 23.2725H8.08496C8.78621 22.2488 10.9087 21.9825 11.175 21.9525C11.3587 21.9338 11.4937 21.7838 11.5012 21.6038L11.9287 6.83252C11.985 6.84377 12.045 6.85127 12.105 6.85127C12.165 6.85127 12.225 6.84377 12.285 6.83252L12.7125 21.6038C12.7162 21.7838 12.855 21.9338 13.035 21.9525C13.305 21.9825 15.4237 22.2488 16.1287 23.2725Z" fill="#38A9DA"/>
<path d="M12.6749 2.71123L12.2999 3.23998C12.2549 3.30373 12.2324 3.37498 12.2324 3.44998V4.52248C12.1912 4.51873 12.1499 4.51123 12.1049 4.51123C12.0637 4.51123 12.0224 4.51873 11.9812 4.52248V3.44998C11.9812 3.37498 11.9549 3.30373 11.9137 3.23998L11.5387 2.71123L12.1049 1.32373L12.6749 2.71123Z" fill="#4FBEE6"/>
<path d="M6.69005 14.4788C6.4838 15.6863 5.25755 16.6163 3.7763 16.6163C2.2988 16.6163 1.07255 15.6863 0.862549 14.4788H6.69005Z" fill="#FFDC7D"/>
<path d="M12.105 5.23499C11.8612 5.23499 11.6625 5.43749 11.6625 5.68124C11.6625 5.92498 11.8612 6.12373 12.105 6.12373C12.3525 6.12373 12.5512 5.92498 12.5512 5.68124C12.5512 5.43749 12.3525 5.23499 12.105 5.23499ZM12.1087 5.95874C11.9512 5.95874 11.8275 5.83498 11.8275 5.68124C11.8275 5.52749 11.9512 5.39624 12.1087 5.39624C12.2625 5.39624 12.39 5.52749 12.39 5.68124C12.39 5.83498 12.2625 5.95874 12.1087 5.95874Z" fill="#EBC25D"/>
<path d="M12.6749 2.71123L12.2999 3.23998C12.2549 3.30373 12.2324 3.37498 12.2324 3.44998V4.52248C12.1912 4.51873 12.1499 4.51123 12.1049 4.51123C12.0637 4.51123 12.0224 4.51873 11.9812 4.52248V3.44998C11.9812 3.37498 11.9549 3.30373 11.9137 3.23998L11.5387 2.71123L12.1049 1.32373L12.6749 2.71123Z" fill="#4FBEE6"/>
<path d="M12.6749 2.71123L12.2999 3.23998C12.2549 3.30373 12.2324 3.37498 12.2324 3.44998V4.52248C12.1912 4.51873 12.1499 4.51123 12.1049 4.51123C12.0637 4.51123 12.0224 4.51873 11.9812 4.52248V3.44998C11.9812 3.37498 11.9549 3.30373 11.9137 3.23998L11.5387 2.71123L12.1049 1.32373L12.6749 2.71123Z" fill="#4FBEE6"/>
<path d="M6.69005 14.4788C6.4838 15.6863 5.25755 16.6163 3.7763 16.6163C2.2988 16.6163 1.07255 15.6863 0.862549 14.4788H1.4513C1.90505 15.42 2.79005 16.0538 3.7763 16.0538C4.7663 16.0538 5.6513 15.42 6.1088 14.4788H6.69005ZM23.1376 16.44C22.9313 17.6475 21.7051 18.5775 20.2238 18.5775C18.7463 18.5775 17.5201 17.6475 17.3101 16.44H17.8988C18.3526 17.3813 19.2376 18.015 20.2238 18.015C21.2138 18.015 22.0988 17.3813 22.5563 16.44H23.1376Z" fill="#EBC25D"/>
</svg>
