<svg width="18" height="18" viewBox="0 0 18 18" fill="none" xmlns="http://www.w3.org/2000/svg">
<path d="M8.16663 11.5H9.83329V13.1667H8.16663V11.5ZM8.16663 4.83333H9.83329V9.83333H8.16663V4.83333ZM8.99163 0.666664C4.39163 0.666664 0.666626 4.4 0.666626 9C0.666626 13.6 4.39163 17.3333 8.99163 17.3333C13.6 17.3333 17.3333 13.6 17.3333 9C17.3333 4.4 13.6 0.666664 8.99163 0.666664ZM8.99996 15.6667C5.31663 15.6667 2.33329 12.6833 2.33329 9C2.33329 5.31666 5.31663 2.33333 8.99996 2.33333C12.6833 2.33333 15.6666 5.31666 15.6666 9C15.6666 12.6833 12.6833 15.6667 8.99996 15.6667Z" fill="#1E90FF"/>
</svg>
