<svg width="24" height="24" viewBox="0 0 24 24" fill="none" xmlns="http://www.w3.org/2000/svg">
<path d="M13.2632 4.44693C13.2632 5.14925 12.6928 5.71893 12 5.71893C11.3072 5.71893 10.7368 5.14925 10.7368 4.44693V1.90293C10.7368 1.20062 11.3072 0.630933 12 0.630933C12.6928 0.630933 13.2632 1.20062 13.2632 1.90293V4.44693Z" fill="#FFCC4D"/>
<path d="M6.42947 23.3684C6.288 23.3684 6.144 23.3356 6.00884 23.268C5.544 23.0318 5.35579 22.4596 5.58821 21.9871L11.2345 10.5391C11.3943 10.2158 11.7196 10.0118 12.0764 10.0118C12.4333 10.0118 12.7585 10.2158 12.9177 10.5391L18.5653 21.9871C18.7977 22.4596 18.6095 23.0318 18.1446 23.268C17.6792 23.5029 17.1145 23.3122 16.8821 22.841L12.0764 13.0989L7.27137 22.841C7.10716 23.1751 6.77432 23.3684 6.42947 23.3684Z" fill="#FFAC33"/>
<path d="M12.0764 13.5107C11.9103 13.5107 11.7505 13.4438 11.6331 13.3244L2.84968 4.41979C2.60463 4.17095 2.60463 3.76864 2.84968 3.52043C3.09474 3.27222 3.492 3.27222 3.73642 3.52043L12.0764 11.9747L20.4152 3.52043C20.6608 3.27222 21.0575 3.27222 21.3025 3.52043C21.5476 3.76864 21.5476 4.17095 21.3025 4.41979L12.5204 13.3244C12.4023 13.4438 12.2432 13.5107 12.0764 13.5107Z" fill="#58595B"/>
<path d="M22.1148 12.8747C22.1148 18.4945 17.6211 23.0501 12.0764 23.0501C6.53307 23.0501 2.03876 18.4945 2.03876 12.8747C2.03876 7.25369 6.53307 2.69811 12.0764 2.69811C17.6211 2.69811 22.1148 7.25369 22.1148 12.8747Z" fill="#DD2E44"/>
<path d="M19.6049 12.8747C19.6049 17.0899 16.2354 20.5067 12.0764 20.5067C7.91875 20.5067 4.54865 17.0899 4.54865 12.8747C4.54865 8.65892 7.91875 5.24208 12.0764 5.24208C16.2354 5.24208 19.6049 8.65892 19.6049 12.8747Z" fill="#E6E7E8"/>
<path d="M19.6042 1.42547C18.5646 1.42547 17.6242 1.85242 16.9427 2.54336L22.2663 7.93958C22.9472 7.24926 23.3684 6.29494 23.3684 5.24147C23.3684 3.13452 21.6827 1.42547 19.6042 1.42547Z" fill="#FFCC4D"/>
<path d="M4.3958 1.42547C5.43475 1.42547 6.3758 1.85242 7.05728 2.54336L1.7337 7.93958C1.05349 7.24926 0.631592 6.29494 0.631592 5.24147C0.631592 3.13452 2.31664 1.42547 4.3958 1.42547Z" fill="#FFCC4D"/>
<path d="M15.1579 13.2631H12C11.6514 13.2631 11.3684 12.9808 11.3684 12.6315V6.94733C11.3684 6.5987 11.6514 6.31575 12 6.31575C12.3486 6.31575 12.6316 6.5987 12.6316 6.94733V12H15.1579C15.5072 12 15.7895 12.2829 15.7895 12.6315C15.7895 12.9808 15.5072 13.2631 15.1579 13.2631Z" fill="#414042"/>
</svg>
