<svg width="20" height="20" viewBox="0 0 20 20" fill="none" xmlns="http://www.w3.org/2000/svg">
<path d="M19.7481 12.2667C19.7481 14.1581 19.7481 16.0494 19.7481 17.9408C19.7481 19.0505 19.0462 19.7524 17.9408 19.7524C12.6449 19.7524 7.34902 19.7524 2.05733 19.7524C0.951916 19.7524 0.25 19.0505 0.25 17.9408C0.25 15.3097 0.25 12.6744 0.25 10.039C0.25 9.31609 0.897276 8.82854 1.56136 9.03869C1.99008 9.17319 2.26748 9.55987 2.26748 10.0474C2.26748 11.5395 2.26748 13.0316 2.26748 14.5237V17.7307H17.7349V17.4869C17.7349 15.0071 17.7349 12.5273 17.7349 10.0474C17.7349 9.48422 18.1173 9.0471 18.6427 8.99246C19.2312 8.93782 19.7439 9.39175 19.7481 9.99279C19.7523 10.7536 19.7481 11.5101 19.7481 12.2667Z" fill="white"/>
<path d="M14.7338 11.2705C14.6708 11.4134 14.5741 11.5521 14.4606 11.6656C13.2249 12.9097 11.9892 14.1454 10.7493 15.3812C10.287 15.8393 9.70275 15.8393 9.24041 15.377C7.99629 14.137 6.75218 12.8929 5.51227 11.6488C5.08355 11.2159 5.07515 10.5896 5.48705 10.1861C5.89055 9.79104 6.5084 9.79945 6.93712 10.224C7.56338 10.846 8.18543 11.4723 8.81169 12.0943C8.85793 12.1406 8.90836 12.1868 8.98822 12.2583V11.9977C8.98822 8.43765 8.98822 4.88183 8.98822 1.32182C8.98822 0.69976 9.42534 0.245826 10.0096 0.250029C10.535 0.254232 10.9721 0.674541 11.0057 1.19993C11.0099 1.28399 11.0099 1.36805 11.0099 1.45211C11.0099 4.9701 11.0099 8.48388 11.0099 12.0019V12.2625C11.0898 12.1868 11.1402 12.1406 11.1906 12.0943C11.8253 11.4597 12.4558 10.825 13.0946 10.1945C13.4477 9.84568 13.9689 9.80365 14.3682 10.0684C14.7507 10.329 14.9188 10.8376 14.7338 11.2705Z" fill="white"/>
</svg>
