<svg width="18" height="18" viewBox="0 0 18 18" fill="none" xmlns="http://www.w3.org/2000/svg">
<path d="M8.99169 0.666672C4.39169 0.666672 0.666687 4.40001 0.666687 9.00001C0.666687 13.6 4.39169 17.3333 8.99169 17.3333C13.6 17.3333 17.3334 13.6 17.3334 9.00001C17.3334 4.40001 13.6 0.666672 8.99169 0.666672ZM9.00002 15.6667C5.31669 15.6667 2.33335 12.6833 2.33335 9.00001C2.33335 5.31667 5.31669 2.33334 9.00002 2.33334C12.6834 2.33334 15.6667 5.31667 15.6667 9.00001C15.6667 12.6833 12.6834 15.6667 9.00002 15.6667ZM8.16669 11.5H9.83335V13.1667H8.16669V11.5ZM8.16669 4.83334H9.83335V9.83334H8.16669V4.83334Z" fill="#FF1010"/>
</svg>
