<svg width="24" height="23" viewBox="0 0 24 23" fill="none" xmlns="http://www.w3.org/2000/svg">
<path d="M23.1984 15.0438C22.3969 14.8048 21.9609 14.0782 22.1766 13.3095C22.3125 12.8173 22.6406 12.4892 23.1328 12.3345C23.8125 12.1188 23.9953 11.8751 23.9953 11.1673C23.9953 10.4501 24 9.72822 23.9953 9.01103C23.9766 7.19697 22.7859 5.72041 21.0188 5.33134C20.7375 5.27041 20.4469 5.24697 20.1609 5.24697C14.7281 5.24228 9.29063 5.24228 3.85781 5.24228H3.1875C3.43125 5.18134 3.67031 5.12041 3.91406 5.06416C8.54531 4.02822 13.1813 2.98759 17.8125 1.95166C18.7594 1.74072 19.3687 2.01728 19.8703 2.89384C20.0859 3.26884 20.4609 3.46103 20.8453 3.39541C21.2531 3.32041 21.5719 3.03447 21.6188 2.62197C21.6422 2.42509 21.6 2.19541 21.5156 2.01259C20.8219 0.507907 19.2047 -0.279593 17.5219 0.0907197C12.6516 1.18291 7.78594 2.27509 2.92031 3.37666C1.37344 3.72822 0.290625 4.92822 0.0421875 6.49853C0.0328125 6.5501 0.0140625 6.60166 0 6.65322V11.5751C0.145312 12.0017 0.445312 12.2313 0.88125 12.3485C1.47656 12.5079 1.87031 13.0657 1.875 13.6751C1.87969 14.2892 1.48125 14.8517 0.876563 15.0157C0.440625 15.1329 0.140625 15.3626 0.0046875 15.7938V18.7938C0.13125 19.1923 0.20625 19.6142 0.389063 19.9845C1.03125 21.2876 2.10469 21.9813 3.55313 22.1079C3.60938 22.1126 3.66094 22.1173 3.71719 22.1173C9.23906 22.1173 14.7563 22.1313 20.2781 22.1079C21.8391 22.0985 22.9688 21.3157 23.6578 19.9142C23.9016 19.4173 24 18.8782 24 18.3251C24 17.5845 24 16.8392 24 16.0985C23.9953 15.5079 23.7656 15.2126 23.1984 15.0438ZM22.1203 18.2923C22.1109 19.3985 21.3563 20.2001 20.2594 20.2329C19.3172 20.261 18.3703 20.2376 17.4234 20.2376C17.4 20.2376 17.3766 20.2282 17.3578 20.2235C17.2172 19.6048 16.8891 19.2954 16.3875 19.3048C15.8953 19.3142 15.5672 19.6329 15.4547 20.2423H15.2109C11.4469 20.2423 7.68281 20.2423 3.91875 20.2423C2.66719 20.2423 1.875 19.4548 1.875 18.2126C1.875 17.7579 1.87969 17.3079 1.87031 16.8532C1.86563 16.7032 1.90781 16.6188 2.04375 16.5392C3.55312 15.6767 4.14375 13.9657 3.46875 12.3673C3.18281 11.6923 2.70938 11.172 2.0625 10.8204C1.92188 10.7454 1.87031 10.6563 1.87031 10.4923C1.87969 10.0095 1.87031 9.52197 1.875 9.03916C1.88906 7.91884 2.68594 7.11728 3.80156 7.11728C7.63594 7.11259 11.4703 7.11259 15.3047 7.11259C15.3516 7.11259 15.3984 7.11728 15.4547 7.12197C15.5625 7.70791 15.9094 8.04541 16.3969 8.05009C16.8891 8.05478 17.2406 7.71728 17.3578 7.11728H17.9813C18.6984 7.11728 19.4203 7.11728 20.1375 7.11728C21.3281 7.12197 22.1203 7.91416 22.125 9.10009C22.1297 9.56884 22.1203 10.0376 22.1297 10.5063C22.1344 10.6563 22.0875 10.7407 21.9516 10.8157C20.7094 11.5563 20.1328 12.6532 20.2922 14.0923C20.4094 15.1423 20.9578 15.9438 21.8625 16.4829C22.0687 16.6048 22.1391 16.7267 22.1297 16.9563C22.1063 17.4017 22.125 17.847 22.1203 18.2923Z" fill="black"/>
<path d="M13.5375 10.7032C13.4063 11.097 13.0453 11.336 12.5719 11.336C11.3157 11.3407 10.0594 11.336 8.79846 11.336C7.90784 11.336 7.01721 11.3407 6.12659 11.336C5.7469 11.336 5.4469 11.172 5.26409 10.8298C5.09534 10.5157 5.11409 10.1923 5.30627 9.89696C5.49846 9.59696 5.7844 9.4657 6.14065 9.4657C7.21877 9.4657 8.2969 9.4657 9.37502 9.4657C10.4625 9.4657 11.5453 9.46102 12.6328 9.47039C13.3032 9.47039 13.7485 10.0798 13.5375 10.7032Z" fill="black"/>
<path d="M10.7578 14.5376C10.6359 14.5845 10.5 14.6126 10.3688 14.6126C8.95782 14.6173 7.54219 14.622 6.13126 14.6126C5.61094 14.6079 5.21719 14.261 5.16563 13.7735C5.11407 13.3095 5.41876 12.8735 5.88751 12.7657C5.99063 12.7423 6.10313 12.7376 6.21094 12.7376C6.89063 12.7376 7.57032 12.7376 8.25 12.7376C8.97657 12.7376 9.70313 12.7282 10.4297 12.7423C10.8891 12.747 11.25 13.0704 11.3297 13.5157C11.4047 13.9376 11.1656 14.3782 10.7578 14.5376Z" fill="black"/>
<path d="M17.3391 10.3985C17.3391 10.9094 16.9078 11.3407 16.3969 11.336C15.8953 11.3313 15.4735 10.9094 15.4688 10.4079C15.4641 9.89226 15.8813 9.46569 16.4016 9.46569C16.9172 9.461 17.3391 9.88288 17.3391 10.3985Z" fill="black"/>
<path d="M17.3391 13.6657C17.3438 14.1767 16.9172 14.6126 16.4063 14.6126C15.9047 14.6126 15.4782 14.2001 15.4688 13.6985C15.4594 13.1829 15.8719 12.7517 16.3875 12.7423C16.9079 12.7376 17.3344 13.1501 17.3391 13.6657Z" fill="black"/>
<path d="M17.3391 16.9517C17.3438 17.4626 16.9172 17.8939 16.4063 17.8986C15.9047 17.8986 15.4781 17.4814 15.4688 16.9798C15.4594 16.4642 15.8766 16.0329 16.3922 16.0282C16.9078 16.0189 17.3344 16.4314 17.3391 16.9517Z" fill="black"/>
</svg>
