<svg width="20" height="13" viewBox="0 0 20 13" fill="none" xmlns="http://www.w3.org/2000/svg">
<path d="M10 1.99998C13.1583 1.99998 15.975 3.77498 17.35 6.58331C15.975 9.39165 13.1583 11.1666 10 11.1666C6.84168 11.1666 4.02501 9.39165 2.65001 6.58331C4.02501 3.77498 6.84168 1.99998 10 1.99998ZM10 0.333313C5.83334 0.333313 2.27501 2.92498 0.833344 6.58331C2.27501 10.2416 5.83334 12.8333 10 12.8333C14.1667 12.8333 17.725 10.2416 19.1667 6.58331C17.725 2.92498 14.1667 0.333313 10 0.333313ZM10 4.49998C11.15 4.49998 12.0833 5.43331 12.0833 6.58331C12.0833 7.73331 11.15 8.66665 10 8.66665C8.85001 8.66665 7.91668 7.73331 7.91668 6.58331C7.91668 5.43331 8.85001 4.49998 10 4.49998ZM10 2.83331C7.93334 2.83331 6.25001 4.51665 6.25001 6.58331C6.25001 8.64998 7.93334 10.3333 10 10.3333C12.0667 10.3333 13.75 8.64998 13.75 6.58331C13.75 4.51665 12.0667 2.83331 10 2.83331Z" fill="#323232"/>
</svg>
