<svg width="20" height="16" viewBox="0 0 20 16" fill="none" xmlns="http://www.w3.org/2000/svg">
<path d="M10 3.00001C13.1583 3.00001 15.975 4.77501 17.35 7.58334C16.8583 8.60001 16.1667 9.47501 15.3417 10.1833L16.5167 11.3583C17.675 10.3333 18.5917 9.05001 19.1667 7.58334C17.725 3.92501 14.1667 1.33334 10 1.33334C8.94168 1.33334 7.92501 1.50001 6.96668 1.80834L8.34168 3.18334C8.88334 3.07501 9.43334 3.00001 10 3.00001ZM9.10834 3.95001L10.8333 5.67501C11.3083 5.88334 11.6917 6.26667 11.9 6.74167L13.625 8.46667C13.6917 8.18334 13.7417 7.88334 13.7417 7.57501C13.75 5.50834 12.0667 3.83334 10 3.83334C9.69168 3.83334 9.40001 3.87501 9.10834 3.95001ZM1.67501 1.22501L3.90834 3.45834C2.55001 4.52501 1.47501 5.94167 0.833344 7.58334C2.27501 11.2417 5.83334 13.8333 10 13.8333C11.2667 13.8333 12.4833 13.5917 13.6 13.15L16.45 16L17.625 14.825L2.85001 0.0416718L1.67501 1.22501ZM7.92501 7.47501L10.1 9.65001C10.0667 9.65834 10.0333 9.66667 10 9.66667C8.85001 9.66667 7.91668 8.73334 7.91668 7.58334C7.91668 7.54167 7.92501 7.51667 7.92501 7.47501ZM5.09168 4.64167L6.55001 6.10001C6.35834 6.55834 6.25001 7.05834 6.25001 7.58334C6.25001 9.65001 7.93334 11.3333 10 11.3333C10.525 11.3333 11.025 11.225 11.475 11.0333L12.2917 11.85C11.5583 12.05 10.7917 12.1667 10 12.1667C6.84168 12.1667 4.02501 10.3917 2.65001 7.58334C3.23334 6.39167 4.08334 5.40834 5.09168 4.64167Z" fill="black"/>
</svg>
