<svg width="25" height="29" viewBox="0 0 25 29" fill="none" xmlns="http://www.w3.org/2000/svg">
<path d="M23.6842 15.0264C23.6842 13.452 23.4428 11.944 23 10.5482C22.6974 14.6608 20.8072 16.7732 18.8322 15.7895C16.9816 14.8676 18.229 11.2739 18.3211 9.55911C18.4763 6.65224 18.3132 3.32488 13.7612 0.55843C15.6526 4.7558 13.9803 7.36275 12.2257 7.52225C10.2796 7.69777 8.49803 5.5823 9.15593 2.14809C7.02566 3.96898 6.96316 7.03382 7.6204 9.01651C8.30593 11.0831 7.59343 12.8002 5.92106 12.991C4.0533 13.2047 3.01514 10.6703 3.97237 6.63164C2.3158 8.8944 1.3158 11.8249 1.3158 15.0264C1.3158 22.1917 6.32303 28.0001 12.5 28.0001C18.677 28.0001 23.6842 22.1917 23.6842 15.0264Z" fill="#FF5830"/>
<path d="M20 20.026C20 18.5727 19.6107 17.2112 18.93 16.0383C19.028 18.0877 17.222 18.891 16.25 18.503C14.8467 17.9428 15.2227 16.9806 14.8613 14.9871C14.5 12.9936 13.1113 11.6087 11.0553 11.0001C12.5553 15.2084 10.224 16.7593 9.002 17.0364C7.754 17.3195 6.5 17.0357 6.35667 14.3737C4.90133 15.8184 4 17.8172 4 20.026C4 24.4297 7.582 28.0001 12 28.0001C16.418 28.0001 20 24.4297 20 20.026Z" fill="#FFB344"/>
<path d="M17.4583 22.3322C17.4583 21.2993 17.1795 20.3315 16.6921 19.4979C16.7622 20.9545 15.4689 21.5255 14.7728 21.2497C13.7678 20.8515 14.0371 20.1676 13.7783 18.7506C13.5195 17.3337 12.525 16.3494 11.0526 15.9167C12.1269 18.9079 10.4573 20.0103 9.58216 20.2073C8.68841 20.4085 7.79036 20.2068 7.68772 18.3147C6.64549 19.3415 6 20.7622 6 22.3322C6 25.4623 8.56523 28.0001 11.7292 28.0001C14.8931 28.0001 17.4583 25.4623 17.4583 22.3322Z" fill="#FFDB69"/>
</svg>
