<svg width="20" height="21" viewBox="0 0 20 21" fill="none" xmlns="http://www.w3.org/2000/svg">
<path d="M9.98832 0.900002H10.6806C13.0842 0.950868 15.4485 1.8919 17.1466 3.55778C16.5196 4.1809 15.8795 4.77858 15.2656 5.4017C14.312 4.5624 13.1625 3.91385 11.9085 3.68495C10.0536 3.30345 8.05505 3.6468 6.50061 4.67685C4.80247 5.75777 3.65296 7.58896 3.40477 9.54733C3.13046 11.4803 3.69215 13.5149 4.98534 15.0155C6.22629 16.4779 8.12037 17.3935 10.0798 17.4571C11.9085 17.5588 13.8157 17.012 15.148 15.7658C16.193 14.8883 16.6764 13.5531 16.8331 12.256C14.6647 12.256 12.4963 12.2687 10.3279 12.256V9.63635H19.4587C19.929 12.4467 19.2497 15.6132 17.0552 17.6224C15.5922 19.0467 13.5675 19.886 11.5036 20.0513C9.505 20.242 7.44111 19.8733 5.6646 18.9322C3.5354 17.8259 1.83726 15.9565 1.00125 13.7565C0.217498 11.7346 0.204435 9.4456 0.93594 7.41093C1.60213 5.5543 2.88227 3.91385 4.52815 2.76935C6.10873 1.63757 8.02893 1.01445 9.98832 0.900002Z" fill="white"/>
</svg>
