<svg width="24" height="24" viewBox="0 0 24 24" fill="none" xmlns="http://www.w3.org/2000/svg">
<path d="M21.6888 12.2957C20.9048 13.799 19.8258 15.076 18.6336 16.2601C16.8797 18.0018 14.9238 19.485 12.8507 20.8186C12.4829 21.053 12.1677 21.0651 11.7959 20.8267C9.35097 19.2667 7.07172 17.5048 5.11173 15.3508C4.0691 14.2071 3.15983 12.9665 2.55769 11.5238C2.29501 10.8893 2.10507 10.2346 2.03637 9.55167C2.03233 9.49913 2.01212 9.45064 2 9.3981V8.47266C2.06466 8.13724 2.10911 7.79778 2.19398 7.47044C2.89715 4.74262 5.41887 2.87154 8.22751 3.01299C9.747 3.08573 11.0564 3.66766 12.1515 4.7305C12.2 4.77495 12.2485 4.81941 12.2768 4.85174C12.6688 4.54865 13.0285 4.22535 13.4245 3.95863C16.9808 1.60664 21.903 3.81719 22.5334 8.03621C22.7597 9.55975 22.3879 10.958 21.6888 12.2957Z" fill="#FF6348"/>
</svg>
