<svg width="24" height="24" viewBox="0 0 24 24" fill="none" xmlns="http://www.w3.org/2000/svg">
<path d="M13.125 11.25L16.725 8.55C17.325 8.1 17.625 7.425 17.625 6.75V2.625H6.375V6.75C6.375 7.425 6.675 8.1 7.275 8.55L10.875 11.25V12.75L7.275 15.45C6.675 15.9 6.375 16.575 6.375 17.25V21.375H17.625V17.25C17.625 16.575 17.325 15.9 16.725 15.45L13.125 12.75V11.25Z" fill="#EEF2FA"/>
<path d="M9.375 3.75H17.625V2.625H6.375V6.75C6.375 7.425 6.675 8.1 7.275 8.55L10.875 11.25V12.75L7.275 15.45C6.675 15.9 6.375 16.575 6.375 17.25V21.375H7.875V17.25C7.875 16.575 8.175 15.9 8.775 15.45L12.375 12.75V11.25L8.775 8.55C8.175 8.1 7.875 7.425 7.875 6.75V5.25C7.875 4.425 8.55 3.75 9.375 3.75Z" fill="#B0C4DA"/>
<path d="M13.125 11.25L16.725 8.55C17.325 8.1 17.625 7.425 17.625 6.75V6.375H6.375V6.75C6.375 7.425 6.675 8.1 7.275 8.55L10.875 11.25V12.75H13.125V11.25Z" fill="#FECB5B"/>
<path d="M17.625 2.625H6.375C5.925 2.625 5.625 2.325 5.625 1.875C5.625 1.425 5.925 1.125 6.375 1.125H17.625C18.075 1.125 18.375 1.425 18.375 1.875C18.375 2.325 18.075 2.625 17.625 2.625Z" fill="#607D95"/>
<path d="M6.375 6.375H17.625H6.375ZM10.875 12.75H13.125H10.875ZM12 13.125V17.625V13.125ZM10.875 11.25H13.125H10.875Z" fill="#516D97"/>
<path d="M17.625 22.875H6.375C5.925 22.875 5.625 22.575 5.625 22.125C5.625 21.675 5.925 21.375 6.375 21.375H17.625C18.075 21.375 18.375 21.675 18.375 22.125C18.375 22.575 18.075 22.875 17.625 22.875Z" fill="#607D95"/>
<path d="M6.375 20.25V21.375H17.625V20.25C17.625 19.575 17.175 18.975 16.5 18.825L12 17.625L7.5 18.825C6.825 18.975 6.375 19.575 6.375 20.25Z" fill="#FECB5B"/>
<path d="M8.775 8.55C8.175 8.1 7.875 7.425 7.875 6.75V6.375H6.375V6.75C6.375 7.425 6.675 8.1 7.275 8.55L10.875 11.25V12.75H12.375V11.25L8.775 8.55Z" fill="#F8B545"/>
<path d="M7.125 1.875C7.125 1.425 7.425 1.125 7.875 1.125H6.375C5.925 1.125 5.625 1.425 5.625 1.875C5.625 2.325 5.925 2.625 6.375 2.625H7.875C7.425 2.625 7.125 2.325 7.125 1.875ZM7.125 22.125C7.125 21.675 7.425 21.375 7.875 21.375H6.375C5.925 21.375 5.625 21.675 5.625 22.125C5.625 22.575 5.925 22.875 6.375 22.875H7.875C7.425 22.875 7.125 22.575 7.125 22.125Z" fill="#4B6C85"/>
<path d="M17.625 20.25H7.875C7.875 19.575 8.325 18.975 9 18.825L12.75 17.85L12 17.625L7.5 18.825C6.825 18.975 6.375 19.575 6.375 20.25V21.375H17.625V20.25Z" fill="#F8B545"/>
<path d="M12 18C11.775 18 11.625 17.85 11.625 17.625V13.125C11.625 12.9 11.775 12.75 12 12.75C12.225 12.75 12.375 12.9 12.375 13.125V17.625C12.375 17.85 12.225 18 12 18Z" fill="#F8B545"/>
</svg>
