<svg width="18" height="18" viewBox="0 0 18 18" fill="none" xmlns="http://www.w3.org/2000/svg">
<path d="M8.85936 16.5867C8.76444 16.5691 8.67304 16.5656 8.57108 16.5656C8.08944 16.5656 7.6078 16.5656 7.12264 16.5656C6.16639 16.5656 5.17499 16.5656 4.20116 16.5621C4.04295 16.5621 3.83202 16.5551 3.64217 16.5094C2.68944 16.2844 2.0742 15.4758 2.0742 14.4492C2.0742 10.8246 2.0742 7.14727 2.0742 3.52266C2.0742 2.27461 2.94608 1.40273 4.19413 1.39922C4.87967 1.39922 5.56874 1.39922 6.25428 1.39922C7.05233 1.39922 7.85038 1.39922 8.64843 1.39922C8.73983 1.39922 8.85937 1.3957 8.97538 1.36758C9.27069 1.30078 9.49921 1.05117 9.54491 0.755859C9.59413 0.425391 9.44648 0.119531 9.16523 -0.0386719C9.12655 -0.0597656 9.08436 -0.084375 9.04569 -0.105469L8.98241 -0.140625H3.7371L3.71952 -0.137109C3.64217 -0.119531 3.56131 -0.101953 3.48397 -0.084375C3.3117 -0.0492188 3.13241 -0.0105469 2.96014 0.0492188C2.22186 0.305859 1.60662 0.762891 1.18475 1.36758C0.762874 1.97227 0.537873 2.71055 0.537873 3.50859C0.534358 7.20703 0.530842 10.8281 0.544905 14.4563C0.54842 14.8922 0.615217 15.3176 0.738264 15.6867C1.241 17.1773 2.5453 18.102 4.13788 18.109C4.72499 18.1125 5.31913 18.1125 5.90975 18.1125C6.36679 18.1125 6.8203 18.1125 7.26679 18.1125C7.7203 18.1125 8.17733 18.1125 8.63085 18.1125H8.6414C8.68007 18.1125 8.72226 18.1125 8.76444 18.109C9.15468 18.0773 9.44999 17.7785 9.4746 17.3988C9.49921 16.9945 9.24608 16.6641 8.85936 16.5867Z" fill="black"/>
<path d="M17.1843 8.35311C16.0312 7.19999 14.8781 6.04686 13.7214 4.89374L13.7179 4.89022C13.6652 4.841 13.6125 4.78827 13.5527 4.73905C13.3488 4.58436 13.0816 4.54569 12.8425 4.62655C12.6 4.71092 12.4172 4.9078 12.3539 5.15741C12.2765 5.44921 12.3609 5.70936 12.607 5.95546C13.3593 6.70428 14.1222 7.46717 14.8605 8.20897H5.21364H5.17145C5.11168 8.20897 5.05192 8.20897 4.98864 8.216C4.74254 8.24061 4.52809 8.37069 4.39801 8.5746C4.27145 8.77499 4.24684 9.01756 4.3277 9.24256C4.41207 9.4746 4.62301 9.75233 5.1609 9.75233C8.39528 9.75233 11.6297 9.75233 14.864 9.75233C14.1328 10.4801 13.405 11.2113 12.6773 11.939L12.6597 11.9566C12.6105 12.0058 12.5578 12.0586 12.5121 12.1183C12.3011 12.389 12.2941 12.7582 12.4945 13.0359C12.6422 13.2398 12.8707 13.3558 13.1062 13.3558C13.1906 13.3558 13.2785 13.3418 13.3629 13.3066C13.5211 13.2433 13.6547 13.1308 13.7355 13.05C14.7269 12.0656 15.7289 11.0601 16.7027 10.0898L17.1879 9.60467C17.4023 9.39022 17.5043 9.18632 17.5078 8.97538C17.5007 8.77147 17.3953 8.56757 17.1843 8.35311Z" fill="black"/>
</svg>
