<svg width="20" height="20" viewBox="0 0 20 20" fill="none" xmlns="http://www.w3.org/2000/svg">
<path d="M0.399902 2.83127C0.399902 2.2135 0.616125 1.70385 1.04855 1.30231C1.48098 0.900763 2.04315 0.699997 2.73504 0.699997C3.41458 0.699997 3.96437 0.897668 4.38446 1.29305C4.81688 1.70077 5.03311 2.23203 5.03311 2.88687C5.03311 3.47992 4.82307 3.97412 4.40299 4.36949C3.97056 4.77722 3.40222 4.98108 2.69797 4.98108H2.67944C1.9999 4.98108 1.4501 4.77722 1.03002 4.36949C0.609935 3.96177 0.399902 3.44903 0.399902 2.83127ZM0.640829 19.0475V6.66756H4.75511V19.0475H0.640829ZM7.03465 19.0475H11.1489V12.1347C11.1489 11.7023 11.1984 11.3687 11.2972 11.134C11.4702 10.7139 11.7327 10.3587 12.0848 10.0683C12.437 9.77798 12.8787 9.63281 13.4099 9.63281C14.7937 9.63281 15.4856 10.5656 15.4856 12.4313V19.0475H19.5999V11.9494C19.5999 10.1208 19.1675 8.73397 18.3026 7.7888C17.4377 6.84363 16.2949 6.37104 14.874 6.37104C13.2802 6.37104 12.0385 7.05675 11.1489 8.42818V8.46525H11.1304L11.1489 8.42818V6.66756H7.03465C7.05936 7.06292 7.07172 8.29226 7.07172 10.3556C7.07172 12.4189 7.05936 15.3162 7.03465 19.0475Z" fill="white"/>
</svg>
