<svg width="13" height="20" viewBox="0 0 13 20" fill="none" xmlns="http://www.w3.org/2000/svg">
<path d="M12.5484 9.29694C12.5228 11.1863 11.8088 12.7681 10.3954 14.0204C9.41409 14.8918 8.25337 15.3825 6.94252 15.5399V18.0225H7.13292C7.77736 18.0225 8.4218 18.0188 9.06624 18.0262C9.57154 18.0298 9.89009 18.4729 9.718 18.9159C9.63378 19.132 9.45803 19.2381 9.26396 19.3333H3.2846C3.237 19.3077 3.18939 19.2821 3.14179 19.2601C2.90745 19.1393 2.76099 18.8866 2.78662 18.634C2.81225 18.352 2.99899 18.125 3.26629 18.0591C3.36515 18.0335 3.47134 18.0298 3.57386 18.0298C4.24759 18.0262 4.92132 18.0298 5.60604 18.0298V15.5985C5.09708 15.4594 4.58446 15.3605 4.09747 15.1848C2.69142 14.6758 1.61491 13.7531 0.856966 12.4679C0.296744 11.5232 0.018463 10.4979 0.000155085 9.39946C-0.00716808 8.96739 0.245481 8.6708 0.626286 8.65616C1.00709 8.64151 1.29636 8.92711 1.30734 9.35552C1.32565 10.1061 1.47577 10.8275 1.81996 11.4975C2.62551 13.0574 3.89608 13.9947 5.639 14.2328C8.03733 14.5586 10.3148 13.0903 11.0215 10.7799C11.1387 10.3954 11.168 9.98165 11.2339 9.58254C11.2522 9.46903 11.2485 9.35186 11.2632 9.23835C11.3035 8.8905 11.6001 8.64151 11.9406 8.65982C12.2921 8.66714 12.5557 8.94176 12.5484 9.29694Z" fill="white"/>
<path d="M10.0659 4.47829C10.0659 3.91807 9.96333 3.37981 9.72166 2.87085C8.89048 1.13892 7.078 0.307745 5.22524 0.813044C3.72399 1.21948 2.55594 2.69144 2.52299 4.24395C2.50468 5.11907 2.51932 5.99419 2.51932 6.8693H2.512C2.512 7.41488 2.50834 7.96412 2.512 8.50969C2.51566 8.95275 2.50102 9.39946 2.5596 9.83519C2.84887 11.9955 4.9616 13.4602 7.08166 12.9878C8.84288 12.596 10.0549 11.0874 10.0659 9.253C10.0732 7.66387 10.0659 6.07108 10.0659 4.47829ZM8.755 9.21638C8.755 10.6407 7.76638 11.6843 6.34934 11.7685C5.1044 11.8417 3.88876 10.7835 3.83383 9.52761C3.79356 8.64151 3.82651 7.75541 3.82651 6.8693C3.82651 5.98686 3.80088 5.10808 3.83383 4.2293C3.88143 3.04295 4.94329 2.02137 6.12965 1.97377C7.43317 1.9225 8.55362 2.81227 8.72205 4.04622C8.74402 4.20001 8.755 4.36112 8.755 4.51857C8.755 6.08206 8.75867 7.64922 8.755 9.21638Z" fill="white"/>
</svg>
