<svg width="18" height="18" viewBox="0 0 18 18" fill="none" xmlns="http://www.w3.org/2000/svg">
<path d="M14.625 9C14.625 9.6345 14.5192 10.2454 14.3258 10.8146L13.41 9.89887C13.4699 9.603 13.5001 9.30188 13.5 9V7.875C13.5 7.72581 13.5593 7.58274 13.6648 7.47725C13.7702 7.37176 13.9133 7.3125 14.0625 7.3125C14.2117 7.3125 14.3548 7.37176 14.4602 7.47725C14.5657 7.58274 14.625 7.72581 14.625 7.875V9ZM9 13.5C9.92025 13.5 10.7752 13.2244 11.4885 12.7496L12.2963 13.5585C11.4932 14.1409 10.5497 14.4992 9.5625 14.5969V16.875H12.9375C13.0867 16.875 13.2298 16.9343 13.3352 17.0398C13.4407 17.1452 13.5 17.2883 13.5 17.4375C13.5 17.5867 13.4407 17.7298 13.3352 17.8352C13.2298 17.9407 13.0867 18 12.9375 18H5.0625C4.91332 18 4.77024 17.9407 4.66475 17.8352C4.55926 17.7298 4.5 17.5867 4.5 17.4375C4.5 17.2883 4.55926 17.1452 4.66475 17.0398C4.77024 16.9343 4.91332 16.875 5.0625 16.875H8.4375V14.5969C7.05002 14.4574 5.7638 13.8076 4.82836 12.7734C3.89293 11.7392 3.37498 10.3945 3.375 9V7.875C3.375 7.72581 3.43426 7.58274 3.53975 7.47725C3.64524 7.37176 3.78832 7.3125 3.9375 7.3125C4.08668 7.3125 4.22976 7.37176 4.33525 7.47725C4.44074 7.58274 4.5 7.72581 4.5 7.875V9C4.5 10.1935 4.97411 11.3381 5.81802 12.182C6.66193 13.0259 7.80653 13.5 9 13.5ZM12.375 3.375V8.86387L11.25 7.73887V3.375C11.2526 2.78804 11.0257 2.2233 10.6178 1.80127C10.2098 1.37924 9.65313 1.13334 9.06642 1.11602C8.47971 1.0987 7.90946 1.31133 7.47733 1.70856C7.0452 2.10579 6.78541 2.65616 6.75337 3.24225L5.80275 2.29162C6.06031 1.53477 6.5781 0.893875 7.26394 0.483036C7.94978 0.0721963 8.75916 -0.0819264 9.54799 0.0481053C10.3368 0.178137 11.0539 0.583885 11.5716 1.19311C12.0893 1.80235 12.374 2.57552 12.375 3.375Z" fill="white"/>
<path d="M10.6717 11.9329L9.83025 11.0914C9.48894 11.2269 9.11966 11.2768 8.75463 11.2367C8.38961 11.1967 8.03993 11.0679 7.73612 10.8616C7.43231 10.6554 7.18361 10.3779 7.01171 10.0534C6.83982 9.72886 6.74997 9.36722 6.75 9V8.01225L5.625 6.88725V9C5.62482 9.59098 5.77983 10.1716 6.07452 10.6839C6.36921 11.1962 6.79324 11.6221 7.30421 11.919C7.81517 12.216 8.39515 12.3735 8.98613 12.376C9.5771 12.3784 10.1584 12.2256 10.6717 11.9329ZM1.85175 1.52325L15.3517 15.0232L16.1482 14.2267L2.64825 0.726749L1.85175 1.52325Z" fill="white"/>
</svg>
