<svg width="19" height="23" viewBox="0 0 19 23" fill="none" xmlns="http://www.w3.org/2000/svg">
<path d="M17.7413 16.385C17.2334 15.8535 16.7113 15.3408 16.1845 14.8282C16.0716 14.7153 16.0199 14.6024 16.0199 14.4425C16.0246 12.7163 16.0246 10.9901 16.0199 9.26397C16.0199 8.93003 16.0152 8.59138 15.9681 8.25743C15.5589 5.46828 14.0303 3.55397 11.4105 2.51921C10.9731 2.34518 10.5027 2.26052 10.023 2.12412C10.023 2.01594 10.023 1.89365 10.023 1.76666C10.023 1.50797 10.0324 1.24928 10.0136 0.995291C9.98533 0.487317 9.54791 0.087523 9.03053 0.0828195C8.51785 0.0781161 8.06632 0.482614 8.0381 0.985884C8.01929 1.37157 8.0334 1.76195 8.0334 2.15234C7.9017 2.18056 7.80763 2.19938 7.70886 2.21819C4.49169 2.82023 2.09293 5.6282 2.0412 8.8971C2.01297 10.7409 2.03179 12.5799 2.03649 14.4237C2.03649 14.593 1.98475 14.7153 1.86717 14.8329C1.3733 15.3126 0.893552 15.8065 0.404393 16.2862C0.0657438 16.6202 -0.0753597 17.0012 0.112778 17.4527C0.300917 17.9042 0.663083 18.0736 1.14284 18.0736C6.3966 18.0688 11.6551 18.0736 16.9088 18.0688C17.0405 18.0688 17.1769 18.0641 17.3039 18.0312C18.0329 17.829 18.2728 16.9447 17.7413 16.385ZM14.5524 16.0746H3.51338C3.51338 16.0464 3.50867 16.0275 3.51338 16.0181C3.9602 15.6701 4.04016 15.2044 4.03546 14.6635C4.01665 12.8198 4.02135 10.9807 4.03076 9.13698C4.04016 6.8511 5.48883 4.89916 7.6242 4.28301C10.8602 3.34702 14.0115 5.73168 14.035 9.13698C14.0444 10.9478 14.0444 12.7586 14.0303 14.5695C14.0256 15.1339 14.0209 15.6748 14.6041 16.0181C14.5853 16.0417 14.5665 16.0558 14.5524 16.0746Z" fill="white"/>
<path d="M11.0248 20.0913C11.006 20.8063 10.7144 21.366 10.1264 21.7469C9.44443 22.1891 8.72481 22.2079 8.02399 21.7987C7.38432 21.4271 7.06449 20.8486 7.03627 20.0913H11.0248Z" fill="white"/>
</svg>
