<svg width="20" height="20" viewBox="0 0 20 20" fill="none" xmlns="http://www.w3.org/2000/svg">
<path d="M8.06249 0C5.71874 0 3.3789 0 1.03516 0C0.363281 0 0 0.367187 0 1.04297C0 2.20703 0 3.37109 0 4.53515C0 5.71093 0 6.89062 0 8.0703C0 8.71874 0.371093 9.09374 1.01172 9.09374C3.36718 9.09374 5.72265 9.09374 8.08202 9.09374C8.72655 9.09374 9.09374 8.72265 9.09765 8.0703C9.09765 5.72265 9.09765 3.375 9.09765 1.02344C9.09374 0.367187 8.72265 0 8.06249 0ZM7.2578 7.2578H1.83203V1.83203H7.2578V7.2578Z" fill="white"/>
<path d="M18.9766 0C16.6289 0 14.2774 0 11.9297 0C11.2695 0 10.9063 0.367187 10.9063 1.03125C10.9063 3.37109 10.9063 5.71484 10.9063 8.05468C10.9063 8.72655 11.2734 9.08983 11.9492 9.08983C13.1133 9.08983 14.2773 9.08983 15.4414 9.08983C16.6211 9.08983 17.7969 9.08983 18.9766 9.08983C19.6289 9.08983 20 8.72265 20 8.07811C20 5.72265 20 3.36718 20 1.01172C20 0.367187 19.625 0 18.9766 0ZM18.168 7.26171H12.7422V1.83594H18.168V7.26171Z" fill="white"/>
<path d="M8.03905 10.9023C5.71093 10.9023 3.38281 10.9023 1.05469 10.9023C0.355468 10.9023 0 11.2617 0 11.9687C0 13.1249 0 14.2812 0 15.4374V18.9062C0 19.6405 0.347656 19.9921 1.07812 19.9921H8.01952C8.74218 19.9921 9.09765 19.6405 9.09765 18.9257C9.09765 16.6054 9.09765 14.2851 9.09765 11.9648C9.09374 11.2616 8.74218 10.9023 8.03905 10.9023ZM7.2578 18.1679H1.83203V12.7421H7.2578V18.1679Z" fill="white"/>
<path d="M19.9882 15.3047C19.8906 12.7579 17.7695 10.8008 15.2929 10.9102C12.7656 11.0196 10.8593 13.086 10.9101 15.5743C11.0078 18.1836 13.1523 20.0625 15.5898 19.9883C18.121 19.9102 20.0859 17.8086 19.9882 15.3047ZM15.4531 18.1758C13.9414 18.1719 12.7226 16.9493 12.7265 15.4375C12.7304 13.9414 13.957 12.7266 15.4609 12.7266C16.9492 12.7266 18.1757 13.9493 18.1796 15.4336C18.1835 16.9453 16.9609 18.1758 15.4531 18.1758Z" fill="white"/>
</svg>
