<svg width="18" height="18" viewBox="0 0 18 18" fill="none" xmlns="http://www.w3.org/2000/svg">
<path fill-rule="evenodd" clip-rule="evenodd" d="M12.3311 13.9106C12.652 13.5687 12.8574 13.1347 12.9184 12.6698L16.4171 14.2245C16.5884 14.3008 16.776 14.3331 16.9629 14.3185C17.1498 14.3038 17.3301 14.2427 17.4874 14.1406C17.6447 14.0386 17.7739 13.8988 17.8635 13.7341C17.953 13.5694 17.9999 13.3849 18 13.1974V4.80263C17.9998 4.61529 17.9529 4.43095 17.8634 4.26636C17.774 4.10176 17.6448 3.96211 17.4877 3.86008C17.3306 3.75806 17.1505 3.69688 16.9637 3.68211C16.7769 3.66734 16.5895 3.69944 16.4182 3.7755L12.9184 5.33025C12.8469 4.78923 12.5812 4.29262 12.1708 3.93292C11.7604 3.57322 11.2332 3.37494 10.6875 3.375H4.806L5.60925 4.5H10.6875C10.9859 4.5 11.272 4.61853 11.483 4.82951C11.694 5.04049 11.8125 5.32663 11.8125 5.625V12.375C11.8127 12.5804 11.7567 12.7819 11.6505 12.9578L12.3311 13.9106ZM1.6065 4.7025C1.45782 4.80607 1.33639 4.94404 1.25255 5.10467C1.16871 5.26529 1.12495 5.44381 1.125 5.625V12.375C1.125 12.6734 1.24353 12.9595 1.4545 13.1705C1.66548 13.3815 1.95163 13.5 2.25 13.5H7.89075L8.694 14.625H2.25C1.65326 14.625 1.08097 14.3879 0.65901 13.966C0.237053 13.544 0 12.9717 0 12.375V5.625C0 4.86563 0.37575 4.194 0.952875 3.78675L1.60538 4.7025H1.6065ZM16.875 13.1963L12.9375 11.4469V6.55313L16.875 4.80263V13.1974V13.1963ZM11.9171 17.2013L0.667125 1.45125L1.58287 0.798752L12.8329 16.5488L11.9171 17.2013Z" fill="white"/>
</svg>
