<svg width="24" height="24" viewBox="0 0 24 24" fill="none" xmlns="http://www.w3.org/2000/svg">
<circle cx="12" cy="12" r="11.25" stroke="white" stroke-width="1.5"/>
<path d="M8.79954 14.6819L9.21337 15.6802C9.85308 15.4673 10.8953 15.1667 11.2083 15.1667C11.6623 15.1667 12.0003 15.2793 12.3913 15.4093C12.8111 15.5496 13.2873 15.7083 13.9167 15.7083C14.5542 15.7083 15.5839 15.2095 15.7838 15.1098L15.299 14.1407C14.9085 14.3358 14.1989 14.625 13.9167 14.625C13.4627 14.625 13.1248 14.5123 12.7337 14.3823C12.3139 14.242 11.8378 14.0833 11.2083 14.0833C11.0843 14.0833 10.9234 14.1034 10.7441 14.137C11.0469 13.5146 11.2083 12.7622 11.2083 11.9167H12.8333V10.8333H11.0058C10.983 10.7754 10.9603 10.7163 10.938 10.6616C10.7983 10.3198 10.6667 9.99646 10.6667 9.20833C10.6667 8.46679 10.9489 7.58333 12.2917 7.58333C13.4963 7.58333 13.928 8.78962 13.9448 8.83783L14.9718 8.49496C14.9448 8.41371 14.2845 6.5 12.2917 6.5C10.2945 6.5 9.58333 7.89912 9.58333 9.20833C9.58333 10.016 9.71008 10.4812 9.84225 10.8333H8.5V11.9167H10.125C10.125 13.253 9.64183 14.261 8.79954 14.6819Z" fill="white"/>
</svg>
