<svg width="24" height="24" viewBox="0 0 24 24" fill="none" xmlns="http://www.w3.org/2000/svg">
<path d="M12.8864 0.514246C13.0167 0.264871 13.3603 0.172527 13.5966 0.328621C16.4803 2.04987 19.35 3.79456 22.238 5.50831C22.3027 5.71456 22.3547 5.95221 22.2206 6.1444C18.9455 11.6016 15.6638 17.055 12.3905 22.5136C12.277 22.6969 12.1819 22.8933 12.0441 23.0606C11.9311 23.2027 11.7413 23.2299 11.5767 23.2721C9.85548 22.2155 8.1136 21.1927 6.38626 20.1455C5.2336 19.4513 4.07766 18.7622 2.92594 18.0666C2.68126 17.9264 2.61282 17.5805 2.77313 17.3517C3.74626 15.7346 4.7147 14.1141 5.69063 12.4983C7.55907 9.37784 9.43548 6.26206 11.3067 3.143C11.8341 2.26737 12.3586 1.38987 12.8864 0.514246ZM13.6964 2.11971C13.5328 2.17643 13.4292 2.36206 13.4677 2.53128C13.5 2.70471 13.6669 2.813 13.8244 2.85987C14.0147 2.91143 14.2256 2.77362 14.2603 2.58096C14.325 2.28237 13.9659 2.02643 13.6964 2.11971ZM15.4819 3.29675C15.1842 3.73268 14.7347 4.06409 14.2219 4.19628C13.6903 4.34112 13.1105 4.26706 12.6253 4.00971C12.5259 3.93518 12.4744 4.06971 12.4303 4.13581C10.1766 7.90128 7.90548 11.656 5.65782 15.4247C6.00376 15.6755 6.3211 15.9821 6.49595 16.3791C6.81001 17.0246 6.75001 17.805 6.40688 18.4271C7.35563 19.0242 8.33063 19.5806 9.28454 20.1708C9.57657 20.3606 9.88126 20.5289 10.1766 20.7136C10.2399 20.7661 10.3472 20.7971 10.387 20.7C10.9303 19.8647 12.0849 19.4991 13.0027 19.8985C13.1138 19.943 13.2174 20.0156 13.3411 20.0171C15.6244 16.2005 17.9274 12.3956 20.2041 8.57581C20.0663 8.44737 19.9031 8.34799 19.7733 8.21065C19.4958 7.92378 19.2985 7.56049 19.2108 7.17096C19.0856 6.63049 19.1916 6.05815 19.4564 5.57487C19.1292 5.34378 18.7763 5.14925 18.4299 4.94862C17.5031 4.39503 16.5778 3.83909 15.653 3.28268C15.5981 3.24143 15.5161 3.21612 15.4819 3.29675ZM20.6906 6.34784C20.542 6.41487 20.452 6.58971 20.4895 6.74956C20.5191 6.91175 20.6691 7.01487 20.8144 7.06737C21.0099 7.14284 21.2433 7.00315 21.2813 6.80018C21.3506 6.49128 20.9635 6.22596 20.6906 6.34784ZM4.79298 16.936C4.52204 17.0269 4.4836 17.4394 4.73251 17.58C4.91345 17.7422 5.23595 17.7094 5.33673 17.4746C5.49282 17.1577 5.09251 16.8221 4.79298 16.936ZM11.7839 21.1664C11.5308 21.2803 11.5195 21.6746 11.7647 21.8044C11.9452 21.961 12.2602 21.9206 12.3586 21.6914C12.5199 21.3628 12.0849 21.0164 11.7839 21.1664Z" fill="#78C2A4"/>
<path d="M13.6964 2.11971C13.966 2.02643 14.325 2.28237 14.2603 2.58096C14.2256 2.77362 14.0147 2.91143 13.8244 2.85987C13.6669 2.81299 13.5 2.70471 13.4677 2.53127C13.4292 2.36205 13.5328 2.17643 13.6964 2.11971Z" fill="#E0F8C5"/>
<path d="M15.4819 3.29673C15.5161 3.2161 15.5981 3.24141 15.653 3.28266C16.5778 3.83907 17.5031 4.39501 18.4299 4.9486C18.1078 5.49845 18.0253 6.18563 18.2409 6.78892C18.3389 7.0936 18.5513 7.34485 18.6502 7.6486C18.7917 8.07329 18.7608 8.55188 18.5644 8.9536C18.4467 9.18938 18.2991 9.40876 18.1664 9.63564C16.4372 12.5152 14.7075 15.3942 12.9778 18.2733C12.742 18.6675 12.3455 18.9591 11.9002 19.0706C11.5158 19.1761 11.1122 19.0636 10.7259 19.1569C10.1287 19.2727 9.60656 19.6594 9.28453 20.1708C8.33062 19.5806 7.35562 19.0242 6.40687 18.427C6.74999 17.805 6.81 17.0245 6.49593 16.3791C6.32109 15.982 6.00374 15.6755 5.65781 15.4247C7.90547 11.6559 10.1766 7.90126 12.4303 4.13579C12.4744 4.0697 12.5259 3.93516 12.6253 4.0097C13.1105 4.26704 13.6903 4.3411 14.2219 4.19626C14.7347 4.06407 15.1842 3.73266 15.4819 3.29673ZM15.4411 7.24829C15.3469 7.28298 15.2855 7.36595 15.2363 7.44892C15.0891 7.69407 14.9433 7.9397 14.7942 8.18392C14.7408 8.27485 14.6794 8.37235 14.6916 8.48345C14.7 8.68267 14.8973 8.8486 15.0961 8.8172C15.2419 8.80454 15.3459 8.68876 15.4111 8.56735C15.5742 8.28282 15.758 8.00907 15.9113 7.71938C16.0477 7.44048 15.7195 7.11563 15.4411 7.24829ZM11.0316 10.4077C10.882 10.3261 10.7325 10.1888 10.5487 10.23C10.3341 10.2661 10.1958 10.5206 10.2853 10.7203C10.3537 10.89 10.5441 10.9486 10.6856 11.0419C10.6073 11.3217 10.5937 11.6222 10.6772 11.903C10.8422 12.5231 11.4342 13.0336 12.0914 13.0069C12.495 13.0022 12.8442 12.7739 13.1372 12.5175C13.5159 12.743 13.8928 12.9717 14.2711 13.1981C14.1314 13.3706 13.9664 13.5197 13.7878 13.6505C13.6364 13.7564 13.5984 13.9852 13.7053 14.1356C13.8056 14.2922 14.0348 14.3485 14.1923 14.2449C14.4666 14.0686 14.693 13.8286 14.895 13.575C15.0159 13.6425 15.1359 13.7442 15.2841 13.7297C15.5039 13.7208 15.6755 13.4808 15.6061 13.2703C15.5592 13.0903 15.3722 13.0191 15.2302 12.93C15.2794 12.7027 15.3089 12.4645 15.2456 12.2367C15.1158 11.7047 14.6208 11.2659 14.0648 11.2528C13.7002 11.2444 13.3852 11.4567 13.0898 11.6442C12.6113 11.3564 12.1331 11.0672 11.6536 10.7808C11.7844 10.6158 11.9672 10.5108 12.1509 10.4156C12.3136 10.3341 12.3839 10.1189 12.3075 9.95532C12.2377 9.78892 12.0314 9.6947 11.8613 9.76079C11.5345 9.89814 11.2364 10.1152 11.0316 10.4077ZM10.6561 15.2086C10.5586 15.2461 10.4981 15.3356 10.4475 15.4219C10.297 15.6745 10.1452 15.9267 9.99328 16.1785C9.93422 16.2727 9.88922 16.3852 9.92062 16.4977C9.96094 16.7002 10.1948 16.8319 10.3894 16.7583C10.5591 16.703 10.6256 16.5235 10.7147 16.3861C10.8539 16.1372 11.0227 15.9038 11.1441 15.646C11.2472 15.368 10.9214 15.0764 10.6561 15.2086Z" fill="#E0F8C5"/>
<rect x="7.53317" y="14.6172" width="10" height="7.22177" transform="rotate(-60 7.53317 14.6172)" fill="#E0F8C5"/>
<path d="M20.6906 6.34784C20.9634 6.22597 21.3506 6.49128 21.2813 6.80019C21.2433 7.00316 21.0098 7.14285 20.8144 7.06738C20.6691 7.01488 20.5191 6.91175 20.4895 6.74956C20.452 6.58972 20.542 6.41487 20.6906 6.34784Z" fill="#E0F8C5"/>
<path d="M11.3386 11.4394C11.7206 11.6658 12.1008 11.8941 12.48 12.1242C12.3249 12.2283 12.1392 12.3132 11.948 12.2686C11.5706 12.1988 11.325 11.8092 11.3386 11.4394Z" fill="#E0F8C5"/>
<path d="M13.7845 12.0614C13.8881 12.0244 13.9931 11.9536 14.1089 11.9817C14.3639 12.0389 14.543 12.2775 14.5692 12.5316C14.3067 12.376 14.0461 12.218 13.7845 12.0614Z" fill="#E0F8C5"/>
<path d="M4.79297 16.936C5.09251 16.8221 5.49282 17.1577 5.33672 17.4746C5.23594 17.7094 4.91344 17.7422 4.73251 17.58C4.4836 17.4394 4.52204 17.0269 4.79297 16.936Z" fill="#E0F8C5"/>
<path d="M11.7839 21.1664C12.0849 21.0164 12.5199 21.3629 12.3586 21.6914C12.2602 21.9207 11.9452 21.961 11.7647 21.8044C11.5195 21.6746 11.5308 21.2804 11.7839 21.1664Z" fill="#E0F8C5"/>
<path d="M10.1255 3.15748C10.5187 3.13779 10.913 3.14998 11.3067 3.14294C9.43546 6.26201 7.55906 9.37779 5.69062 12.4983C5.43609 12.6023 5.17828 12.6979 4.9214 12.7954C4.73625 12.8686 4.53046 12.8812 4.33875 12.8264C4.82062 12.0792 5.25937 11.3058 5.71734 10.544C7.0139 8.40091 8.29968 6.25123 9.58921 4.10341C9.76968 3.78935 9.98484 3.4931 10.1255 3.15748Z" fill="#DDEAFB"/>
<path d="M6.48656 5.27011C6.91688 5.22417 7.35469 5.22417 7.78266 5.29448C7.93547 5.32261 8.10375 5.35027 8.2186 5.46511C8.40469 5.64745 8.29031 6.03371 8.01797 6.05152C7.73297 6.05433 7.45735 5.95495 7.17188 5.95542C6.19547 5.93995 5.24625 6.27558 4.40391 6.74949C4.17985 6.89152 3.84703 6.68667 3.8761 6.4223C3.86766 6.29339 3.93938 6.17527 4.05235 6.11574C4.80141 5.68683 5.62781 5.3798 6.48656 5.27011Z" fill="#DDEAFB"/>
<path d="M15.885 18.6394C17.7595 15.5194 19.6322 12.3989 21.5077 9.27936C21.6849 9.61873 21.8681 9.9553 22.0374 10.2989C21.1599 11.7145 20.3203 13.1536 19.4578 14.5786C18.4688 16.2314 17.4717 17.879 16.4784 19.529C16.3899 19.6725 16.3102 19.8211 16.2338 19.9711C16.1058 19.844 16.0195 19.6772 15.9938 19.4986C15.9544 19.2126 15.9197 18.9258 15.885 18.6394Z" fill="#DDEAFB"/>
<path d="M20.5922 13.1845C20.7281 13.1287 20.8983 13.1578 20.993 13.2754C21.1411 13.4517 21.2292 13.6687 21.3253 13.8754C21.7228 14.8321 21.7809 15.8999 21.6375 16.9171C21.6033 17.1135 21.5892 17.3245 21.4819 17.4979C21.3441 17.714 20.9564 17.669 20.8753 17.4253C20.8247 17.2748 20.8692 17.1154 20.8917 16.964C21.0619 15.9646 21.0178 14.8949 20.5711 13.9696C20.4863 13.7924 20.3339 13.6176 20.3855 13.4071C20.3986 13.297 20.4952 13.222 20.5922 13.1845Z" fill="#DDEAFB"/>
<path d="M5.30438 3.88591C6.86484 3.40919 8.49516 3.17997 10.1255 3.15747C9.98484 3.4931 9.76969 3.78935 9.58922 4.10341C8.29969 6.25122 7.01391 8.40091 5.71734 10.544C5.25938 11.3058 4.82062 12.0792 4.33875 12.8264C3.98812 12.7143 3.72094 12.3726 3.73219 11.999C3.72563 11.7679 3.84703 11.564 3.97687 11.3831C4.32281 10.8703 4.66547 10.3542 5.01141 9.84138C5.05172 9.77435 5.11031 9.69653 5.07047 9.61497C5.03203 9.50763 4.90031 9.47575 4.80656 9.5306C4.20047 9.78747 3.59812 10.0542 2.99109 10.3087C2.67 10.4395 2.28703 10.3912 2.00625 10.1883C1.68609 9.9731 1.50703 9.57091 1.56563 9.18888C1.59563 8.95778 1.71375 8.74497 1.87922 8.58278C2.21859 8.23075 2.56781 7.88763 2.90062 7.5295C3.00469 7.42544 2.85328 7.24356 2.73047 7.32138C2.34562 7.46763 1.96547 7.62653 1.58344 7.77888C1.35984 7.86513 1.13297 7.98091 0.885937 7.95841C0.422812 7.93685 0.0117188 7.52997 0 7.06356V6.97778C0.0178125 6.68106 0.185156 6.40403 0.437813 6.24841C1.92188 5.21106 3.56859 4.40435 5.30438 3.88591ZM6.48656 5.27013C5.62781 5.37981 4.80141 5.68685 4.05234 6.11575C3.93937 6.17528 3.86766 6.29341 3.87609 6.42231C3.84703 6.68669 4.17984 6.89153 4.40391 6.7495C5.24625 6.2756 6.19547 5.93997 7.17188 5.95544C7.45734 5.95497 7.73297 6.05435 8.01797 6.05153C8.29031 6.03372 8.40469 5.64747 8.21859 5.46513C8.10375 5.35028 7.93547 5.32263 7.78266 5.2945C7.35469 5.22419 6.91688 5.22419 6.48656 5.27013Z" fill="#ECF4FF"/>
<path d="M19.4578 14.5786C20.3203 13.1536 21.1599 11.7145 22.0374 10.2989C22.1892 10.6186 22.357 10.9298 22.4972 11.2551C23.4347 13.3186 23.9325 15.5719 24 17.8355V18.4369C23.9817 19.1081 23.9456 19.7798 23.8514 20.4445C23.7717 20.9353 23.2369 21.2836 22.7555 21.158C22.3908 21.0811 22.0838 20.774 22.027 20.4028C21.9558 19.8656 21.9141 19.3242 21.8433 18.7875C21.841 18.645 21.6145 18.6192 21.5794 18.7556C21.4088 19.2497 21.2667 19.7536 21.0961 20.2476C20.9114 20.7665 20.2706 21.0492 19.7625 20.8364C19.3997 20.7037 19.1213 20.3601 19.0866 19.973C19.0275 19.3303 18.9792 18.6862 18.9249 18.0426C18.9164 17.9737 18.9127 17.8903 18.848 17.8481C18.7603 17.7778 18.623 17.8176 18.5803 17.9208C18.277 18.4795 17.9789 19.042 17.6789 19.6031C17.581 19.8019 17.4586 20.0034 17.2561 20.1094C16.9322 20.3001 16.4995 20.2303 16.2338 19.9711C16.3102 19.8211 16.3899 19.6725 16.4785 19.529C17.4717 17.879 18.4688 16.2314 19.4578 14.5786ZM20.5922 13.1845C20.4952 13.222 20.3986 13.297 20.3855 13.4072C20.3339 13.6176 20.4863 13.7925 20.5711 13.9697C21.0178 14.895 21.0619 15.9647 20.8917 16.964C20.8692 17.1155 20.8247 17.2748 20.8753 17.4253C20.9564 17.669 21.3441 17.714 21.4819 17.498C21.5892 17.3245 21.6033 17.1136 21.6375 16.9172C21.781 15.9 21.7228 14.8322 21.3253 13.8755C21.2292 13.6687 21.1411 13.4517 20.993 13.2755C20.8983 13.1578 20.7281 13.1287 20.5922 13.1845Z" fill="#ECF4FF"/>
<path d="M18.4299 4.94861C18.7763 5.14923 19.1292 5.34376 19.4564 5.57486C19.1916 6.05814 19.0856 6.63048 19.2108 7.17095C19.2985 7.56048 19.4958 7.92376 19.7733 8.21064C19.9031 8.34798 20.0663 8.44736 20.2041 8.57579C17.9274 12.3956 15.6244 16.2005 13.3411 20.017C13.2174 20.0156 13.1138 19.943 13.0027 19.8984C12.0849 19.4991 10.9303 19.8647 10.387 20.7C10.3472 20.797 10.2399 20.7661 10.1766 20.7136C9.88126 20.5289 9.57658 20.3606 9.28455 20.1708C9.60658 19.6594 10.1288 19.2727 10.726 19.1569C11.1122 19.0636 11.5158 19.1761 11.9002 19.0706C12.3455 18.9591 12.742 18.6675 12.9778 18.2733C14.7075 15.3942 16.4372 12.5152 18.1664 9.63564C18.2991 9.40876 18.4467 9.18939 18.5644 8.95361C18.7608 8.55189 18.7917 8.07329 18.6502 7.64861C18.5513 7.34486 18.3389 7.09361 18.241 6.78892C18.0253 6.18564 18.1078 5.49845 18.4299 4.94861Z" fill="#CCF49F"/>
<path d="M22.238 5.5083C22.4817 5.6583 22.733 5.79611 22.9711 5.95455C23.1863 6.10361 23.2317 6.42424 23.093 6.63986C22.5656 7.52017 22.0369 8.40002 21.5077 9.27939C19.6322 12.3989 17.7595 15.5194 15.885 18.6394C14.918 20.2556 13.9463 21.8695 12.9764 23.4844C12.8531 23.7169 12.5381 23.8369 12.3014 23.7033C12.0539 23.5697 11.8177 23.4164 11.5767 23.272C11.7413 23.2299 11.9311 23.2027 12.0441 23.0606C12.1819 22.8933 12.277 22.6969 12.3905 22.5136C15.6638 17.055 18.9455 11.6016 22.2206 6.14439C22.3547 5.95221 22.3027 5.71455 22.238 5.5083Z" fill="#66B394"/>
<path d="M15.4411 7.24825C15.7195 7.1156 16.0476 7.44044 15.9112 7.71935C15.758 8.00904 15.5742 8.28279 15.4111 8.56732C15.3459 8.68873 15.2419 8.80451 15.0961 8.81716C14.8973 8.84857 14.7 8.68263 14.6916 8.48341C14.6794 8.37232 14.7408 8.27482 14.7942 8.18388C14.9433 7.93966 15.0891 7.69404 15.2362 7.44888C15.2855 7.36591 15.3469 7.28294 15.4411 7.24825Z" fill="#2B4D66"/>
<path d="M10.6561 15.2086C10.9214 15.0764 11.2472 15.368 11.1441 15.646C11.0227 15.9038 10.8539 16.1372 10.7147 16.3861C10.6256 16.5235 10.5591 16.703 10.3894 16.7583C10.1949 16.8319 9.96096 16.7002 9.92064 16.4977C9.88924 16.3852 9.93424 16.2727 9.9933 16.1785C10.1452 15.9267 10.2971 15.6745 10.4475 15.4219C10.4981 15.3356 10.5586 15.2461 10.6561 15.2086Z" fill="#2B4D66"/>
<g clip-path="url(#clip0_1039_1542)">
<path d="M13.1916 14.2847L13.7755 14.3807C13.8562 14.0254 14.0092 13.4598 14.0975 13.3157C14.2254 13.107 14.3735 12.9838 14.5445 12.8412C14.7285 12.6883 14.937 12.5149 15.1144 12.2253C15.2941 11.9321 15.3509 11.3153 15.3606 11.1948L14.7704 11.1399C14.7515 11.3754 14.6869 11.7848 14.6074 11.9146C14.4794 12.1234 14.3314 12.2466 14.1603 12.3892C13.9763 12.542 13.7678 12.7155 13.5904 13.005C13.5555 13.0621 13.5195 13.1418 13.4847 13.2339C13.2787 12.9161 12.9721 12.6261 12.5763 12.3836L13.0343 11.6361L12.5273 11.3254L12.0121 12.166C11.9786 12.1599 11.9445 12.1534 11.9127 12.1479C11.7133 12.1142 11.5248 12.0819 11.156 11.8559C10.8089 11.6432 10.4749 11.26 10.8534 10.6423C11.193 10.0882 11.8793 10.2356 11.9066 10.2417L12.0356 9.67099C11.9899 9.66014 10.9081 9.41496 10.3463 10.3316C9.78339 11.2502 10.2378 11.9787 10.8506 12.3542C11.2286 12.5858 11.4821 12.661 11.6842 12.7012L11.3058 13.3186L11.8129 13.6293L12.2709 12.8819C12.8964 13.2652 13.232 13.7765 13.1916 14.2847Z" fill="#2B4D66"/>
</g>
<defs>
<clipPath id="clip0_1039_1542">
<rect width="7.01319" height="7.13641" fill="white" transform="translate(7.5 12.7) rotate(-58.5)"/>
</clipPath>
</defs>
</svg>
