<svg width="18" height="18" viewBox="0 0 18 18" fill="none" xmlns="http://www.w3.org/2000/svg">
<path d="M17.4153 15.8123C16.3832 14.7907 15.3581 13.7585 14.3295 12.7333C14.2837 12.6875 14.2238 12.6593 14.171 12.6206C15.6469 10.528 16.1119 8.2769 15.4743 5.83203C14.9777 3.93673 13.8927 2.436 12.2688 1.34391C8.99993 -0.847312 4.64255 -0.308315 2.03588 2.591C-0.588408 5.50441 -0.683516 9.85514 1.79635 12.8848C4.2903 15.9286 8.96822 16.8234 12.5859 14.1918C12.7127 14.3327 12.843 14.4842 12.9839 14.6216C13.942 15.5692 14.9037 16.5134 15.8583 17.4645C16.1049 17.7076 16.355 17.9225 16.7002 18H17.0524C17.2145 17.926 17.3871 17.8697 17.535 17.7781C17.7992 17.6125 17.9225 17.3412 18 17.0523V16.6648C17.9049 16.3125 17.6654 16.0624 17.4153 15.8123ZM7.87624 13.4978C4.77289 13.4978 2.25075 10.9789 2.25075 7.87529C2.25075 4.77165 4.76936 2.24928 7.87272 2.24928C10.9725 2.24928 13.4982 4.77165 13.5017 7.87177C13.5017 10.9719 10.9761 13.4978 7.87624 13.4978Z" fill="white"/>
</svg>
