<svg width="24" height="24" viewBox="0 0 24 24" fill="none" xmlns="http://www.w3.org/2000/svg">
<path d="M22.5823 13.9024C22.2636 13.6306 21.9308 13.3681 21.6073 13.0962C20.8902 12.4869 20.8902 11.5073 21.6027 10.8979C21.9167 10.6307 22.2448 10.3729 22.5589 10.1058C23.3135 9.4636 23.4823 8.52615 22.9854 7.659C22.3479 6.54812 21.7105 5.44192 21.0636 4.33573C20.5574 3.46858 19.6481 3.14516 18.7059 3.49202C18.3169 3.63264 17.9325 3.792 17.5435 3.92325C16.6763 4.22323 15.8186 3.71232 15.6639 2.81236C15.5983 2.42801 15.5326 2.04365 15.4717 1.65929C15.3311 0.801524 14.8108 0.239051 13.9671 0.0374982C13.939 0.0328109 13.9108 0.0140618 13.8827 0H9.38293C9.35481 0.0140618 9.32669 0.0328109 9.29856 0.0374982C8.45017 0.243738 7.93457 0.801524 7.79395 1.65929C7.73301 2.03428 7.67208 2.41394 7.60646 2.78893C7.4424 3.73576 6.58463 4.23261 5.67999 3.90918C5.29095 3.76857 4.90659 3.61389 4.51755 3.47327C3.62228 3.15453 2.71295 3.47327 2.23016 4.29354C1.56456 5.42317 0.908346 6.55749 0.261503 7.6965C-0.207224 8.52615 -0.0337953 9.4636 0.692732 10.087C1.01147 10.3589 1.34426 10.6214 1.66768 10.8932C2.38015 11.5026 2.38015 12.4822 1.663 13.0915C1.34895 13.3587 1.02084 13.6165 0.706794 13.8837C-0.0431699 14.5212 -0.211912 15.4586 0.275565 16.3117C0.913034 17.432 1.55988 18.5428 2.20672 19.6584C2.71295 20.5256 3.61759 20.8443 4.56442 20.4974C4.95346 20.3568 5.33782 20.1975 5.72686 20.0662C6.59401 19.7662 7.44709 20.2771 7.60646 21.1865C7.67208 21.5708 7.73302 21.9552 7.79864 22.3395C7.958 23.3004 8.68453 23.9801 9.60792 23.9895C10.9579 24.0035 12.3125 24.0035 13.6624 23.9895C14.5249 23.9801 15.2561 23.366 15.4295 22.5223C15.5186 22.0864 15.5842 21.6458 15.6592 21.2099C15.8232 20.2631 16.6763 19.7568 17.5857 20.085C17.9841 20.2256 18.3731 20.3896 18.7715 20.5256C19.6574 20.8349 20.5621 20.5162 21.0402 19.7053C21.7058 18.5757 22.362 17.4413 23.0088 16.3023C23.4776 15.4633 23.3041 14.5212 22.5823 13.9024ZM20.1121 17.5632C19.9152 17.9101 19.709 18.2475 19.5168 18.5991C19.4465 18.7303 19.3856 18.7538 19.245 18.6975C18.7622 18.5147 18.2887 18.3038 17.7919 18.1866C15.8842 17.7413 14.0983 19.0069 13.7983 20.9849C13.7421 21.3552 13.6765 21.7208 13.6109 22.1005H9.66886C9.59386 21.6599 9.51887 21.2146 9.43918 20.774C9.07358 18.7819 7.01586 17.6054 5.10346 18.2944C4.73785 18.4257 4.37224 18.5616 4.00663 18.7022C3.90351 18.7444 3.84258 18.7397 3.78164 18.6319C3.16292 17.5491 2.53952 16.4664 1.91611 15.3883C1.90674 15.3742 1.91142 15.3602 1.90674 15.3321C2.2161 15.079 2.53014 14.8212 2.8395 14.5634C4.49411 13.1947 4.4988 10.7901 2.84419 9.4261C2.53014 9.1683 2.2161 8.9105 1.88799 8.63864C2.53014 7.52776 3.15824 6.43094 3.80039 5.34349C3.82852 5.3013 3.9457 5.26849 4.00195 5.28724C4.33474 5.39974 4.66285 5.52629 4.99096 5.64816C7.07211 6.42156 9.16263 5.18881 9.48606 2.98579C9.5423 2.6155 9.60792 2.24989 9.67355 1.8796H13.6062C13.6859 2.32957 13.7562 2.77486 13.8358 3.22016C14.1874 5.14662 16.1795 6.3325 18.0497 5.72785C18.4575 5.5966 18.8559 5.43723 19.259 5.28724C19.3574 5.24974 19.4231 5.22631 19.4887 5.34349C20.1168 6.44031 20.7496 7.53244 21.3917 8.63864C21.0777 8.89644 20.773 9.14955 20.4683 9.40267C18.7715 10.7948 18.7715 13.1947 20.4636 14.5821C20.773 14.8352 21.0777 15.0883 21.3917 15.3508C20.9605 16.0914 20.534 16.8273 20.1121 17.5632Z" fill="black"/>
<path d="M11.7969 7.37313C9.27044 7.26532 7.13304 9.24335 7.01117 11.8214C6.89399 14.329 8.89077 16.4805 11.4875 16.6117C14.0327 16.6821 16.1467 14.7087 16.2639 12.1448C16.3764 9.64646 14.3889 7.48562 11.7969 7.37313ZM11.6422 14.7462C10.1376 14.7509 8.8814 13.49 8.88608 11.9854C8.89077 10.4808 10.1329 9.24335 11.6328 9.23866C13.1421 9.23398 14.3936 10.4902 14.3889 11.9995C14.3843 13.4994 13.1421 14.7415 11.6422 14.7462Z" fill="black"/>
</svg>
