<svg width="14" height="16" viewBox="0 0 14 16" fill="none" xmlns="http://www.w3.org/2000/svg">
<path d="M13.7467 12.7824C13.7439 14.0068 12.8508 15.0296 11.635 15.2024C11.6091 15.2053 11.5802 15.2197 11.5543 15.2284H11.0357C10.7966 15.1621 10.5489 15.1189 10.3241 15.0209C9.23514 14.5513 8.65894 13.4162 8.89806 12.2523C8.90095 12.235 8.90383 12.2149 8.90671 12.1861C8.51778 11.9642 8.12596 11.7395 7.73703 11.5177C6.67107 10.9098 5.60511 10.3048 4.54204 9.69401C4.44984 9.63927 4.39222 9.63927 4.30868 9.71418C3.53081 10.3999 2.39859 10.5093 1.49685 9.99363C0.589342 9.47506 0.102457 8.44367 0.28972 7.43245C0.479865 6.40106 1.28942 5.60015 2.31792 5.4417C3.07274 5.32646 3.74401 5.51948 4.3202 6.01789C4.38646 6.07551 4.43544 6.0928 4.51899 6.0467C5.95659 5.22274 7.39708 4.40167 8.83468 3.58059C8.85773 3.56618 8.88366 3.55178 8.90383 3.53738C8.59268 1.96436 9.60102 0.898405 10.5777 0.604546C11.7128 0.264591 12.9343 0.774523 13.4788 1.83184C14.0204 2.88051 13.7295 4.17119 12.796 4.89431C11.8741 5.60879 10.4653 5.62032 9.48866 4.61774C8.01649 5.4561 6.54143 6.29735 5.05485 7.14435C5.19025 7.61395 5.19602 8.08643 5.05197 8.57331C6.52991 9.41456 8.00784 10.2587 9.49155 11.1028C9.82862 10.7513 10.2204 10.5122 10.6814 10.3912C12.2342 9.99363 13.7525 11.1748 13.7467 12.7824Z" fill="white"/>
</svg>
