<svg width="18" height="26" viewBox="0 0 18 26" fill="none" xmlns="http://www.w3.org/2000/svg">
<path d="M11.0626 9.62488C8.78135 8.78135 7.53124 8.12488 7.53124 7.09376C7.53124 6.21847 8.25 5.71871 9.53135 5.71871C11.8751 5.71871 14.2812 6.62506 15.9376 7.43735L16.875 1.65618C15.5624 1.03112 12.8749 0 9.15618 0C6.53135 0 4.34382 0.687353 2.78135 1.96871C1.15606 3.31235 0.31253 5.25 0.31253 7.59371C0.31253 11.8436 2.90629 13.6562 7.125 15.1874C9.84371 16.1562 10.7501 16.8438 10.7501 17.9061C10.7501 18.9374 9.87477 19.5311 8.28124 19.5311C6.31235 19.5311 3.06265 18.5624 0.937411 17.3125L0 23.1561C1.81235 24.1874 5.18735 25.2498 8.68765 25.2498C11.4688 25.2498 13.7813 24.5936 15.3438 23.3437C17.0936 21.9686 18 19.9375 18 17.3125C18 12.9686 15.3438 11.1561 11.0624 9.62506L11.0626 9.62488Z" fill="white"/>
</svg>
