<svg width="16" height="16" viewBox="0 0 16 16" fill="none" xmlns="http://www.w3.org/2000/svg">
<path d="M8 15.8469C12.332 15.8469 15.8438 12.3351 15.8438 8.00312C15.8438 3.67114 12.332 0.159378 8 0.159378C3.66802 0.159378 0.15625 3.67114 0.15625 8.00312C0.15625 12.3351 3.66802 15.8469 8 15.8469Z" fill="#E67368"/>
<path d="M13.5469 2.45625L2.45312 13.55C5.51562 16.6125 10.4812 16.6125 13.5469 13.55C16.6094 10.4844 16.6094 5.51875 13.5469 2.45625Z" fill="#DB3328"/>
<path d="M7.7625 8.24687C7.81875 8.30625 7.9 8.34375 7.99062 8.34375H15.8375C15.8469 8.125 15.8469 7.90625 15.8406 7.71875H8.29062L7.7625 8.24687Z" fill="#B5100B"/>
<path d="M8 14.5969C11.6416 14.5969 14.5938 11.6447 14.5938 8.00312C14.5938 4.3615 11.6416 1.40938 8 1.40938C4.35837 1.40938 1.40625 4.3615 1.40625 8.00312C1.40625 11.6447 4.35837 14.5969 8 14.5969Z" fill="#FFFCFA"/>
<path d="M3.33749 12.6656C4.53125 13.8594 6.17812 14.5969 8 14.5969C11.6406 14.5969 14.5938 11.6438 14.5938 8.00313C14.5938 6.18125 13.8563 4.53437 12.6625 3.34062L3.33749 12.6656Z" fill="#EBEADF"/>
<path d="M7.7625 8.24687C7.81875 8.30625 7.9 8.34375 7.99062 8.34375H14.5844C14.5906 8.21875 14.5937 8.12187 14.5937 8.00937C14.5937 7.9125 14.5906 7.8125 14.5875 7.71875H8.29062L7.7625 8.24687Z" fill="#C4C1AB"/>
<path d="M8 13.2531C10.8995 13.2531 13.25 10.9026 13.25 8.00312C13.25 5.10363 10.8995 2.75313 8 2.75313C5.10051 2.75313 2.75 5.10363 2.75 8.00312C2.75 10.9026 5.10051 13.2531 8 13.2531Z" fill="#E67368"/>
<path d="M4.28751 11.7156C5.2375 12.6656 6.55 13.2531 8 13.2531C10.9 13.2531 13.25 10.9031 13.25 8.00313C13.25 6.55312 12.6625 5.24062 11.7125 4.29062L4.28751 11.7156Z" fill="#DB3328"/>
<path d="M7.7625 8.24687C7.81875 8.30625 7.9 8.34375 7.99062 8.34375H13.2375C13.2437 8.21875 13.2469 8.12187 13.2469 8.00937C13.2469 7.9125 13.2437 7.8125 13.2375 7.71875H8.29062L7.7625 8.24687Z" fill="#B5100B"/>
<path d="M8 12.0031C10.2091 12.0031 12 10.2123 12 8.00313C12 5.79399 10.2091 4.00313 8 4.00313C5.79086 4.00313 4 5.79399 4 8.00313C4 10.2123 5.79086 12.0031 8 12.0031Z" fill="#FFFCFA"/>
<path d="M5.17188 10.8313C5.89688 11.5563 6.89688 12.0031 8 12.0031C10.2094 12.0031 12 10.2125 12 8.00313C12 6.9 11.5531 5.9 10.8281 5.175L5.17188 10.8313Z" fill="#EBEADF"/>
<path d="M7.7625 8.24687C7.81875 8.30625 7.9 8.34375 7.99062 8.34375H11.9844C11.9937 8.21875 11.9969 8.12187 11.9969 8.00937C11.9969 7.9125 11.9937 7.8125 11.9875 7.71875H8.29062L7.7625 8.24687Z" fill="#C4C1AB"/>
<path d="M8 10.3156C9.27716 10.3156 10.3125 9.28029 10.3125 8.00313C10.3125 6.72597 9.27716 5.69063 8 5.69063C6.72284 5.69063 5.6875 6.72597 5.6875 8.00313C5.6875 9.28029 6.72284 10.3156 8 10.3156Z" fill="#E67368"/>
<path d="M6.36563 9.63749C6.78438 10.0562 7.36251 10.3156 8.00001 10.3156C9.27813 10.3156 10.3125 9.28124 10.3125 8.00312C10.3125 7.36562 10.0531 6.78749 9.63438 6.36874L6.36563 9.63749Z" fill="#DB3328"/>
<path d="M7.7625 8.24687C7.81875 8.30625 7.9 8.34375 7.99062 8.34375H10.2875C10.3031 8.21875 10.3125 8.12187 10.3125 8.00937C10.3125 7.9125 10.3062 7.8125 10.2937 7.71875H8.29062L7.7625 8.24687Z" fill="#B5100B"/>
<path d="M7.99999 6.7625L8.40312 7.57812L9.30312 7.70937L8.64999 8.34375L8.80624 9.24062L7.99999 8.81875L7.19374 9.24062L7.34999 8.34375L6.69687 7.70937L7.59687 7.57812L7.99999 6.7625Z" fill="#FFFA5A"/>
<path d="M7.19376 9.24063L8.00001 8.81875L8.80626 9.24063L8.65001 8.34375L9.30313 7.70938L8.42188 7.58125L7.28438 8.71563L7.19376 9.24063Z" fill="#F8D707"/>
<path d="M7.99063 7.71875C7.81876 7.71875 7.67813 7.85938 7.67813 8.03125C7.67813 8.20312 7.81876 8.34375 7.99063 8.34375H8.65938L9.30001 7.71875H7.99063Z" fill="#EDA900"/>
<path d="M12.5719 0.15625L10.6656 2.0625L10.4344 4.20625L10.2063 2.51875L9.3 3.425L9.74063 6.25313L12.5719 6.69688L14.325 4.94063L13.1375 4.31563L14.8563 4.40938L15.8406 3.425L13.0125 2.98438L12.5719 0.15625Z" fill="#68A1D6"/>
<path d="M13.0125 2.98438L12.8875 2.17813L9.61563 5.45001L9.74063 6.25626L10.5563 6.38126L13.8281 3.11251L13.0125 2.98438Z" fill="#3179AF"/>
<path d="M13.8406 1.71875L7.77813 7.78126C7.65625 7.90313 7.65625 8.10001 7.77813 8.22188C7.9 8.34376 8.09688 8.34376 8.21875 8.22188L14.2813 2.1625C14.4031 2.04063 14.4031 1.84375 14.2813 1.72188C14.1594 1.59688 13.9625 1.59688 13.8406 1.71875Z" fill="#1F3F77"/>
</svg>
