<svg width="24" height="24" viewBox="0 0 24 24" fill="none" xmlns="http://www.w3.org/2000/svg">
<path d="M7.755 12.0183C7.83281 11.828 8.085 11.7445 8.26171 11.849C8.38171 11.9109 8.42671 12.0469 8.47078 12.165C8.72953 12.9262 8.99156 13.6865 9.25546 14.4459C9.50671 13.6837 9.75984 12.922 10.0073 12.1589C10.0486 12.0417 10.0978 11.9114 10.2159 11.8528C10.3903 11.7553 10.6326 11.834 10.7133 12.0169C10.7733 12.1326 10.7348 12.2653 10.7006 12.3825C10.3626 13.3959 10.0298 14.4108 9.69655 15.4261C9.6478 15.5986 9.51749 15.7622 9.32906 15.7837C9.12093 15.8236 8.91046 15.6853 8.84765 15.4865C8.48999 14.4647 8.14546 13.4381 7.78687 12.4167C7.74703 12.2897 7.69312 12.1472 7.755 12.0183Z" fill="#7E707D"/>
<path d="M11.8702 11.827C12.0155 11.7698 12.1945 11.82 12.2873 11.9465C12.3619 12.0403 12.3586 12.1668 12.3633 12.2803C12.3605 13.297 12.3609 14.3137 12.3628 15.3309C12.3614 15.4532 12.352 15.592 12.2569 15.682C12.1242 15.8245 11.8753 15.825 11.7422 15.6829C11.6325 15.5793 11.6372 15.4186 11.6348 15.2803C11.64 14.264 11.6358 13.2473 11.6367 12.2311C11.6255 12.0651 11.7033 11.8837 11.8702 11.827Z" fill="#7E707D"/>
<path d="M13.4522 12.233C13.4306 12.0337 13.5656 11.8181 13.7784 11.8106C14.0916 11.7914 14.4061 11.8045 14.7197 11.8041C15.1673 11.8017 15.6042 12.0497 15.8288 12.4369C16.088 12.862 16.0613 13.4386 15.7622 13.837C15.5503 14.1305 15.21 14.3283 14.8486 14.3597C14.6255 14.378 14.4009 14.3695 14.1773 14.3719C14.1684 14.7384 14.1919 15.1055 14.1684 15.4711C14.1577 15.6764 13.9397 15.8283 13.7428 15.7828C13.5539 15.7519 13.4377 15.5606 13.4527 15.3773C13.4508 14.3292 13.4522 13.2811 13.4522 12.233ZM14.1773 12.5292C14.1778 12.9014 14.1783 13.2736 14.1802 13.6458C14.483 13.6308 14.8397 13.718 15.0909 13.5005C15.3347 13.3012 15.3436 12.8953 15.1069 12.6872C14.8589 12.4481 14.4867 12.5466 14.1773 12.5292Z" fill="#7E707D"/>
<path d="M1.98937 6.8719C2.02922 6.86018 2.07 6.8508 2.11125 6.84424C2.64234 6.85643 3.17391 6.84752 3.705 6.85033C8.61188 6.84799 13.5183 6.85361 18.4252 6.84752C19.0706 7.89471 19.5178 9.06517 19.7114 10.2811C14.2017 10.2811 8.69203 10.2816 3.18234 10.2811C3.04219 10.2797 2.88328 10.3172 2.80875 10.4489C2.67844 10.6397 2.78766 10.9411 3.01828 10.9866C3.24469 11.0269 3.47625 11.003 3.705 11.0067C9.07641 11.0058 14.4478 11.0067 19.8192 11.0063C19.8333 11.565 19.8356 12.127 19.7386 12.6797C19.6537 12.5569 19.5619 12.4388 19.4691 12.3216C19.29 12.5461 19.1423 12.7927 18.9722 13.0233C18.8841 13.155 18.7242 13.1953 18.5817 13.2389C18.3647 13.2984 18.15 13.365 17.9391 13.4428C18.0609 13.6238 18.1898 13.8 18.3263 13.9702C18.4195 14.0934 18.533 14.2224 18.5283 14.3869C18.5353 14.6775 18.51 14.9681 18.5231 15.2588C18.727 15.2006 18.9291 15.1359 19.1273 15.06C18.9459 15.5883 18.7134 16.0978 18.4458 16.5877C13.3744 16.5863 8.30297 16.5895 3.23203 16.5858C3.105 16.5914 2.95922 16.5928 2.86313 16.6899C2.72016 16.8216 2.71687 17.07 2.85656 17.2055C2.94 17.295 3.06938 17.3072 3.18422 17.3128C8.10891 17.3124 13.0336 17.3124 17.9587 17.3128C16.7606 18.9 15.0764 20.1098 13.1934 20.7469C10.2173 20.7394 7.24125 20.7455 4.26516 20.7436C3.50484 20.7389 2.74453 20.7534 1.98469 20.7361C1.94859 20.1863 1.73625 19.635 1.31391 19.267C0.967969 18.9394 0.499687 18.7884 0.03375 18.7416C0.0253125 18.7144 0.0084375 18.6595 0 18.6323V8.9522C0.0103125 8.92783 0.0304688 8.87908 0.0407813 8.8547C0.187031 8.82049 0.3375 8.80924 0.483281 8.77314C1.15641 8.60767 1.71422 8.05642 1.89422 7.38752C1.94438 7.21924 1.94766 7.04205 1.98937 6.8719ZM2.96766 8.03064C2.73328 8.14314 2.71312 8.50924 2.93297 8.64752C3.14578 8.8083 3.4875 8.64752 3.49828 8.3808C3.53625 8.10705 3.20578 7.88768 2.96766 8.03064ZM7.755 12.0183C7.69313 12.1472 7.74703 12.2897 7.78687 12.4167C8.14547 13.4381 8.49 14.4647 8.84766 15.4866C8.91047 15.6853 9.12094 15.8236 9.32906 15.7838C9.5175 15.7622 9.64781 15.5986 9.69656 15.4261C10.0298 14.4108 10.3627 13.396 10.7006 12.3825C10.7348 12.2653 10.7733 12.1327 10.7133 12.0169C10.6327 11.8341 10.3903 11.7553 10.2159 11.8528C10.0978 11.9114 10.0486 12.0417 10.0073 12.1589C9.75984 12.922 9.50672 13.6838 9.25547 14.4459C8.99156 13.6866 8.72953 12.9263 8.47078 12.165C8.42672 12.0469 8.38172 11.911 8.26172 11.8491C8.085 11.7445 7.83281 11.828 7.755 12.0183ZM11.8702 11.827C11.7033 11.8838 11.6255 12.0652 11.6367 12.2311C11.6358 13.2474 11.64 14.2641 11.6348 15.2803C11.6372 15.4186 11.6325 15.5794 11.7422 15.683C11.8753 15.825 12.1242 15.8245 12.2569 15.682C12.352 15.592 12.3614 15.4533 12.3628 15.3309C12.3609 14.3138 12.3605 13.297 12.3633 12.2803C12.3586 12.1669 12.3619 12.0403 12.2873 11.9466C12.1945 11.82 12.0155 11.7699 11.8702 11.827ZM13.4522 12.233C13.4522 13.2811 13.4508 14.3292 13.4527 15.3774C13.4377 15.5606 13.5539 15.7519 13.7428 15.7828C13.9397 15.8283 14.1577 15.6764 14.1684 15.4711C14.1919 15.1055 14.1684 14.7384 14.1773 14.3719C14.4009 14.3695 14.6255 14.378 14.8486 14.3597C15.21 14.3283 15.5503 14.1305 15.7622 13.837C16.0613 13.4386 16.088 12.862 15.8287 12.4369C15.6042 12.0497 15.1673 11.8017 14.7197 11.8041C14.4061 11.8045 14.0916 11.7914 13.7784 11.8106C13.5656 11.8181 13.4306 12.0338 13.4522 12.233ZM3.93563 13.1236C3.63891 13.2652 3.30609 13.3135 3.00094 13.4363C3.11672 13.6322 3.25312 13.815 3.39703 13.9913C3.48328 14.1094 3.59953 14.2294 3.58547 14.3883C3.585 14.6761 3.56578 14.9639 3.57609 15.2522C3.87188 15.1884 4.14797 15.0633 4.43578 14.9747C4.55906 14.9334 4.68281 14.992 4.79859 15.0305C5.02031 15.1167 5.24484 15.1964 5.47594 15.2541C5.49937 14.9227 5.445 14.5889 5.48391 14.2599C5.64187 13.9669 5.88703 13.7306 6.05719 13.4438C5.78109 13.3294 5.49 13.2614 5.20734 13.1677C5.09344 13.1367 5.03109 13.0308 4.96688 12.9413C4.82859 12.7313 4.68703 12.5227 4.53281 12.3235C4.30406 12.5677 4.16391 12.8813 3.93563 13.1236ZM3.01406 18.9042C2.76469 18.9834 2.69484 19.3458 2.89594 19.5122C3.09047 19.7063 3.46359 19.5769 3.495 19.3036C3.55125 19.0425 3.26109 18.8011 3.01406 18.9042Z" fill="#FE8D94"/>
<path d="M14.1773 12.5292C14.4867 12.5466 14.8589 12.4481 15.1069 12.6872C15.3436 12.8953 15.3347 13.3012 15.0909 13.5005C14.8397 13.718 14.483 13.6308 14.1802 13.6458C14.1783 13.2736 14.1778 12.9014 14.1773 12.5292Z" fill="#FE8D94"/>
<path d="M18.4252 6.84753C19.6219 6.84378 20.8181 6.84097 22.0148 6.84847C22.0519 7.073 22.0786 7.30128 22.1545 7.51737C22.342 8.05643 22.778 8.50315 23.3142 8.70097C23.535 8.78253 23.7689 8.8144 24 8.85518V18.7172C23.8716 18.7758 23.73 18.7885 23.5931 18.8133C22.9294 18.9441 22.3641 19.4555 22.148 20.0939C22.0716 20.3035 22.057 20.5271 22.0167 20.7441C21.21 20.7708 20.4023 20.7483 19.5952 20.7558C17.4614 20.7497 15.3267 20.768 13.1934 20.7469C15.0764 20.1099 16.7606 18.9 17.9587 17.3128C18.9103 17.3124 19.8619 17.3124 20.8134 17.3138C20.977 17.3208 21.1678 17.2678 21.2325 17.1C21.3455 16.8764 21.1617 16.5835 20.9095 16.5933C20.0887 16.5783 19.267 16.5924 18.4458 16.5877C18.7134 16.0978 18.9459 15.5883 19.1273 15.06C19.2792 15.008 19.4428 14.9278 19.6055 14.9855C19.8787 15.0722 20.1431 15.1861 20.4211 15.2588C20.4337 14.9677 20.4094 14.6771 20.4155 14.3864C20.4089 14.2313 20.5148 14.1085 20.6025 13.9922C20.7436 13.8146 20.8791 13.6322 21.0052 13.4428C20.7403 13.3374 20.4628 13.2694 20.1923 13.1808C19.9608 13.1086 19.8741 12.8569 19.7386 12.6797C19.8356 12.1271 19.8333 11.565 19.8192 11.0063C20.182 11.0002 20.5453 11.018 20.9077 11.0016C21.0736 11.0011 21.2297 10.8788 21.2578 10.7133C21.3033 10.5169 21.1519 10.3008 20.948 10.2896C20.5364 10.2657 20.1234 10.2891 19.7114 10.2811C19.5178 9.06518 19.0706 7.89472 18.4252 6.84753ZM20.6887 8.03018C20.4441 8.14737 20.4366 8.5355 20.677 8.66159C20.9034 8.80925 21.2348 8.61612 21.2208 8.34706C21.2325 8.0855 20.9142 7.89659 20.6887 8.03018ZM20.7319 18.9057C20.4727 18.99 20.4164 19.3758 20.6395 19.5314C20.8402 19.7002 21.1837 19.5647 21.2156 19.305C21.2742 19.0421 20.9794 18.7988 20.7319 18.9057Z" fill="#FF6D75"/>
<path d="M2.96765 8.03063C3.20578 7.88766 3.53625 8.10703 3.49828 8.38078C3.4875 8.6475 3.14578 8.80828 2.93297 8.6475C2.71312 8.50922 2.73328 8.14313 2.96765 8.03063Z" fill="#EFF6FF"/>
<path d="M20.6888 8.03013C20.9142 7.89654 21.2325 8.08544 21.2208 8.34701C21.2349 8.61607 20.9034 8.80919 20.677 8.66154C20.4366 8.53544 20.4441 8.14732 20.6888 8.03013Z" fill="#EFF6FF"/>
<path d="M2.80876 10.4489C2.88329 10.3172 3.04219 10.2797 3.18235 10.2811C8.69203 10.2816 14.2017 10.2811 19.7114 10.2811C20.1234 10.2891 20.5364 10.2656 20.948 10.2895C21.1519 10.3008 21.3033 10.5169 21.2578 10.7133C21.2297 10.8787 21.0736 11.0011 20.9077 11.0016C20.5453 11.018 20.182 11.0001 19.8192 11.0062C14.4478 11.0067 9.07641 11.0058 3.705 11.0067C3.47625 11.003 3.24469 11.0269 3.01829 10.9866C2.78766 10.9411 2.67844 10.6397 2.80876 10.4489Z" fill="#EFF6FF"/>
<path d="M2.86312 16.6898C2.95922 16.5928 3.105 16.5914 3.23203 16.5858C8.30297 16.5895 13.3744 16.5862 18.4458 16.5876C19.267 16.5923 20.0887 16.5783 20.9095 16.5933C21.1617 16.5834 21.3455 16.8764 21.2325 17.1C21.1678 17.2678 20.977 17.3207 20.8134 17.3137C19.8619 17.3123 18.9103 17.3123 17.9587 17.3128C13.0336 17.3123 8.1089 17.3123 3.18422 17.3128C3.06937 17.3072 2.94 17.295 2.85656 17.2054C2.71687 17.07 2.72016 16.8215 2.86312 16.6898Z" fill="#EFF6FF"/>
<path d="M3.01407 18.9042C3.2611 18.8011 3.55125 19.0425 3.495 19.3036C3.4636 19.5769 3.09047 19.7062 2.89594 19.5122C2.69485 19.3458 2.76469 18.9834 3.01407 18.9042Z" fill="#EFF6FF"/>
<path d="M20.7319 18.9056C20.9794 18.7987 21.2742 19.042 21.2156 19.305C21.1837 19.5647 20.8402 19.7001 20.6395 19.5314C20.4164 19.3758 20.4727 18.99 20.7319 18.9056Z" fill="#EFF6FF"/>
<path d="M3.93562 13.1236C4.1639 12.8812 4.30406 12.5676 4.53281 12.3234C4.68702 12.5226 4.82859 12.7312 4.96687 12.9412C5.03109 13.0308 5.09343 13.1367 5.20734 13.1676C5.48999 13.2614 5.78109 13.3294 6.05718 13.4437C5.88702 13.7306 5.64187 13.9669 5.4839 14.2598C5.44499 14.5889 5.49937 14.9226 5.47593 15.2541C5.24484 15.1964 5.02031 15.1167 4.79859 15.0305C4.68281 14.992 4.55906 14.9334 4.43577 14.9747C4.14796 15.0633 3.87187 15.1884 3.57609 15.2522C3.56577 14.9639 3.58499 14.6761 3.58546 14.3883C3.59952 14.2294 3.48327 14.1094 3.39702 13.9912C3.25312 13.815 3.11671 13.6322 3.00093 13.4362C3.30609 13.3134 3.6389 13.2651 3.93562 13.1236Z" fill="#FDE588"/>
<path d="M18.9722 13.0233C19.1424 12.7926 19.29 12.5461 19.4691 12.3215C19.5619 12.4387 19.6538 12.5568 19.7386 12.6797C19.8741 12.8568 19.9608 13.1086 20.1924 13.1808C20.4628 13.2693 20.7403 13.3373 21.0052 13.4428C20.8791 13.6322 20.7436 13.8145 20.6025 13.9922C20.5149 14.1084 20.4089 14.2312 20.4155 14.3864C20.4094 14.677 20.4338 14.9676 20.4211 15.2587C20.1431 15.1861 19.8788 15.0722 19.6055 14.9854C19.4428 14.9278 19.2792 15.0079 19.1274 15.06C18.9291 15.1359 18.727 15.2006 18.5231 15.2587C18.51 14.9681 18.5353 14.6775 18.5283 14.3868C18.533 14.2223 18.4195 14.0934 18.3263 13.9701C18.1899 13.8 18.0609 13.6237 17.9391 13.4428C18.15 13.365 18.3647 13.2984 18.5817 13.2389C18.7242 13.1953 18.8841 13.155 18.9722 13.0233Z" fill="#FDE588"/>
</svg>
