<svg width="24" height="24" viewBox="0 0 24 24" fill="none" xmlns="http://www.w3.org/2000/svg">
<g clip-path="url(#clip0_1039_2048)">
<path d="M11.6193 19.5658C15.6579 19.5658 18.9318 16.2919 18.9318 12.2533C18.9318 8.21472 15.6579 4.9408 11.6193 4.9408C7.58074 4.9408 4.30682 8.21472 4.30682 12.2533C4.30682 16.2919 7.58074 19.5658 11.6193 19.5658Z" fill="#FFD064"/>
<path fill-rule="evenodd" clip-rule="evenodd" d="M11.3109 4.94717C15.2065 5.1088 18.3151 8.31805 18.3151 12.2533C18.3151 16.1886 15.2065 19.3978 11.3109 19.5594C11.4132 19.5636 11.516 19.5658 11.6193 19.5658C15.6579 19.5658 18.9318 16.2919 18.9318 12.2533C18.9318 8.21473 15.6579 4.9408 11.6193 4.9408C11.516 4.9408 11.4132 4.94295 11.3109 4.94717Z" fill="#FFC338"/>
<path d="M15.5676 16.2016C17.7482 14.0209 17.7481 10.4854 15.5675 8.30484C13.3868 6.12425 9.8513 6.12431 7.67071 8.30497C5.49013 10.4856 5.49019 14.0211 7.67085 16.2017C9.85152 18.3823 13.387 18.3823 15.5676 16.2016Z" fill="#FFC338"/>
<path fill-rule="evenodd" clip-rule="evenodd" d="M6.70143 12.2533C6.70143 9.28126 9.02343 6.8515 11.9523 6.67923C11.8421 6.67271 11.7311 6.66943 11.6193 6.66943C8.53542 6.66943 6.03543 9.16942 6.03543 12.2533C6.03543 15.3371 8.53542 17.8371 11.6193 17.8371C11.7311 17.8371 11.8421 17.8338 11.9523 17.8274C9.02343 17.6552 6.70143 15.2254 6.70143 12.2533Z" fill="#F5B829"/>
<path fill-rule="evenodd" clip-rule="evenodd" d="M23.9124 14.7172C23.7777 14.5596 23.5411 14.541 23.3835 14.6754L22.8857 15.1002C23.2758 13.549 23.3457 11.9234 23.0837 10.3434C22.756 8.36415 21.9102 6.49065 20.6377 4.9254C18.8422 2.7158 16.3067 1.2467 13.4986 0.787883C13.2942 0.754508 13.1014 0.892695 13.0678 1.09721C13.0344 1.30154 13.1733 1.49476 13.3776 1.52795C16.0044 1.9569 18.3763 3.3316 20.0559 5.39832C22.3022 8.16226 23.0423 11.7682 22.093 15.1685L21.7008 14.256C21.6188 14.0656 21.3983 13.9776 21.2079 14.0589C21.0178 14.141 20.9296 14.3614 21.0118 14.5516L21.7959 16.3767C21.8428 16.4864 21.9394 16.5664 22.0551 16.5936C22.0834 16.6002 22.1119 16.6033 22.1404 16.6033C22.2287 16.6033 22.3153 16.5726 22.3839 16.514L23.8702 15.2459C24.0276 15.1115 24.0464 14.8747 23.9124 14.7172ZM6.42131 12.2534C6.42131 9.38663 8.75386 7.05409 11.6206 7.05409C14.488 7.05409 16.8201 9.38663 16.8201 12.2534C16.8201 15.1203 14.488 17.4529 11.6206 17.4529C8.75386 17.4528 6.42131 15.1203 6.42131 12.2534ZM5.67126 12.2534C5.67126 8.97315 8.34033 6.30404 11.6206 6.30404C14.9015 6.30404 17.5701 8.9731 17.5701 12.2534C17.5701 15.5338 14.9015 18.2029 11.6206 18.2029C8.34037 18.2029 5.67126 15.5338 5.67126 12.2534ZM11.2463 15.3406C10.3585 15.2132 9.66928 14.6478 9.4687 13.8434C9.4185 13.6428 9.5408 13.4394 9.74203 13.3892C9.94303 13.339 10.1465 13.4615 10.1966 13.6621C10.3775 14.3891 11.1112 14.6319 11.685 14.6173C12.178 14.6056 12.6421 14.4298 12.8671 14.1697C13.0021 14.014 13.0546 13.8283 13.0269 13.6035C12.9619 13.0673 12.5113 12.7588 11.5653 12.6036C10.0313 12.3515 9.67345 11.571 9.64406 10.9607C9.60272 10.1145 10.1942 9.40627 11.1153 9.19707C11.158 9.18732 11.2016 9.17893 11.2463 9.17143V8.72612C11.2463 8.51893 11.4141 8.35112 11.621 8.35112C11.828 8.35112 11.9963 8.51893 11.9963 8.72612V9.16857C12.6468 9.2694 13.2867 9.64993 13.6077 10.415C13.6878 10.6058 13.5984 10.8256 13.407 10.9056C13.2164 10.9859 12.9963 10.8963 12.9163 10.7051C12.6121 9.98138 11.8757 9.79342 11.2814 9.92832C10.8337 10.0303 10.3649 10.3451 10.3929 10.924C10.402 11.1055 10.4286 11.6568 11.6867 11.8635C12.1621 11.9413 13.6095 12.1788 13.7718 13.513C13.8242 13.9475 13.7081 14.3444 13.4348 14.6604C13.1175 15.027 12.5933 15.2739 11.9963 15.3462V15.7807C11.9963 15.9879 11.828 16.1557 11.621 16.1557C11.4141 16.1557 11.2463 15.9879 11.2463 15.7807V15.3406ZM4.69593 12.2534C4.69593 8.43517 7.80215 5.32805 11.6206 5.32805C15.4392 5.32805 18.5459 8.43517 18.5459 12.2534C18.5459 16.0718 15.4392 19.1782 11.6206 19.1782C7.80215 19.1782 4.69593 16.0718 4.69593 12.2534ZM11.6206 4.57824C15.8532 4.57824 19.2962 8.02168 19.2962 12.2534C19.2962 16.4853 15.8532 19.9283 11.6206 19.9283C7.3889 19.9283 3.94593 16.4853 3.94593 12.2534C3.94593 8.02168 7.3889 4.57824 11.6206 4.57824ZM4.76582 3.81873C5.98307 2.82924 7.40283 2.1144 8.90995 1.7259L8.31492 2.52277C8.19131 2.68862 8.22492 2.92341 8.391 3.04726C8.45845 3.09788 8.53739 3.12179 8.6152 3.12179C8.72953 3.12179 8.8425 3.0698 8.9159 2.97123L10.1042 1.37987C10.1756 1.28434 10.197 1.16054 10.1624 1.04663C10.1281 0.932773 10.0414 0.841883 9.92906 0.801851L8.08762 0.148414C7.89281 0.0789919 7.67812 0.181133 7.60912 0.376601C7.5397 0.571601 7.64184 0.785867 7.83689 0.855336L8.4509 1.07335C6.94068 1.50207 5.52028 2.23909 4.29262 3.23654C2.36095 4.80643 1.0086 6.90549 0.380897 9.30634C-0.233588 11.6586 -0.105994 14.0983 0.749475 16.3621C0.8061 16.512 0.949163 16.6044 1.10062 16.6044C1.14463 16.6044 1.18907 16.5965 1.23309 16.5801C1.42677 16.5069 1.52427 16.2902 1.4511 16.0967C-0.206822 11.7116 1.12541 6.77743 4.76582 3.81873ZM20.6142 19.6142C20.7453 19.4539 20.7219 19.2176 20.5616 19.0864C20.4017 18.9551 20.1656 18.9785 20.0342 19.1384C19.5712 19.7029 19.0472 20.224 18.4763 20.6881C14.0933 24.2501 7.85812 23.8797 3.93974 19.9445L4.77337 20.0984C4.977 20.1362 5.17246 20.0013 5.21006 19.7979C5.24765 19.5941 5.11298 19.3986 4.90959 19.361L2.98809 19.0061C2.87113 18.9847 2.75062 19.0199 2.66395 19.1014C2.57662 19.1828 2.53349 19.3006 2.54765 19.4192L2.78113 21.3918C2.80349 21.582 2.96531 21.7226 3.15281 21.7226C3.1672 21.7226 3.1822 21.7217 3.19724 21.7199C3.40312 21.6954 3.5497 21.5094 3.52537 21.3036L3.43031 20.495C5.34979 22.4085 7.8608 23.5831 10.59 23.8265C10.9405 23.8579 11.2898 23.8734 11.6381 23.8734C14.2979 23.8734 16.8613 22.9673 18.949 21.2704C19.5591 20.7744 20.1191 20.2174 20.6142 19.6142Z" fill="black"/>
<circle cx="12" cy="12" r="5" fill="#FFC338"/>
<path d="M9.58238 14.1644L9.86887 14.8555C10.3118 14.7081 11.0333 14.5 11.25 14.5C11.5643 14.5 11.7983 14.578 12.069 14.668C12.3596 14.7651 12.6893 14.875 13.125 14.875C13.5664 14.875 14.2793 14.5296 14.4176 14.4606L14.082 13.7898C13.8116 13.9248 13.3204 14.125 13.125 14.125C12.8108 14.125 12.5768 14.047 12.306 13.957C12.0154 13.8599 11.6858 13.75 11.25 13.75C11.1641 13.75 11.0527 13.7639 10.9286 13.7871C11.1382 13.3563 11.25 12.8354 11.25 12.25H12.375V11.5H11.1098C11.094 11.4599 11.0783 11.419 11.0629 11.3811C10.9661 11.1445 10.875 10.9206 10.875 10.375C10.875 9.86162 11.0704 9.25 12 9.25C12.834 9.25 13.1329 10.0851 13.1445 10.1185L13.8555 9.88112C13.8368 9.82487 13.3796 8.5 12 8.5C10.6174 8.5 10.125 9.46862 10.125 10.375C10.125 10.9341 10.2128 11.2562 10.3043 11.5H9.375V12.25H10.5C10.5 13.1751 10.1655 13.873 9.58238 14.1644Z" fill="black"/>
</g>
<defs>
<clipPath id="clip0_1039_2048">
<rect width="24" height="24" fill="white"/>
</clipPath>
</defs>
</svg>
