<svg width="24" height="24" viewBox="0 0 24 24" fill="none" xmlns="http://www.w3.org/2000/svg">
<path d="M4.72125 7.875C4.26704 7.874 3.83092 8.05297 3.50834 8.37274C3.18576 8.69251 3.00298 9.12705 3 9.58125V18.705C2.99951 18.9312 3.04369 19.1552 3.13002 19.3643C3.21635 19.5733 3.34311 19.7633 3.50304 19.9232C3.66298 20.0831 3.85292 20.2099 4.06198 20.2962C4.27103 20.3826 4.49508 20.4267 4.72125 20.4263H19.2788C19.5049 20.4267 19.729 20.3826 19.938 20.2962C20.1471 20.2099 20.337 20.0831 20.497 19.9232C20.6569 19.7633 20.7837 19.5733 20.87 19.3643C20.9563 19.1552 21.0005 18.9312 21 18.705V9.58125C20.997 9.12705 20.8143 8.69251 20.4917 8.37274C20.1691 8.05297 19.733 7.874 19.2788 7.875H4.72125ZM12 10.1625C12.7877 10.1625 13.5576 10.3961 14.2126 10.8337C14.8675 11.2713 15.3779 11.8933 15.6794 12.621C15.9808 13.3487 16.0596 14.1494 15.906 14.922C15.7523 15.6945 15.373 16.4041 14.8161 16.9611C14.2591 17.518 13.5495 17.8973 12.7769 18.051C12.0044 18.2046 11.2037 18.1258 10.476 17.8244C9.74826 17.5229 9.12628 17.0125 8.68868 16.3576C8.25107 15.7026 8.0175 14.9327 8.0175 14.145C8.01701 13.6219 8.11968 13.1038 8.31965 12.6204C8.51961 12.137 8.81294 11.6978 9.18285 11.3279C9.55276 10.9579 9.99198 10.6646 10.4754 10.4646C10.9588 10.2647 11.4769 10.162 12 10.1625ZM5.58375 10.29C5.72787 10.29 5.87056 10.3185 6.00366 10.3737C6.13676 10.429 6.25764 10.51 6.35936 10.612C6.46109 10.7141 6.54167 10.8353 6.59648 10.9686C6.65129 11.1018 6.67925 11.2446 6.67875 11.3888V16.8975C6.68749 17.0469 6.66561 17.1966 6.61444 17.3373C6.56327 17.4779 6.48389 17.6067 6.38117 17.7156C6.27846 17.8245 6.15458 17.9112 6.01713 17.9705C5.87969 18.0298 5.73157 18.0604 5.58188 18.0604C5.43219 18.0604 5.28407 18.0298 5.14662 17.9705C5.00918 17.9112 4.88529 17.8245 4.78258 17.7156C4.67987 17.6067 4.60049 17.4779 4.54932 17.3373C4.49815 17.1966 4.47626 17.0469 4.485 16.8975V11.3888C4.485 11.0973 4.60076 10.8179 4.80682 10.6118C5.01288 10.4058 5.29235 10.29 5.58375 10.29Z" fill="#7A8892"/>
<path d="M12 10.1625C11.2123 10.1625 10.4423 10.396 9.78743 10.8336C9.13251 11.2713 8.62206 11.8932 8.32064 12.6209C8.01921 13.3486 7.94035 14.1494 8.09401 14.9219C8.24768 15.6945 8.62697 16.4041 9.18394 16.961C9.7409 17.518 10.4505 17.8973 11.223 18.051C11.9956 18.2046 12.7963 18.1258 13.524 17.8243C14.2517 17.5229 14.8737 17.0125 15.3113 16.3575C15.7489 15.7026 15.9825 14.9326 15.9825 14.145C15.983 13.6219 15.8803 13.1038 15.6803 12.6204C15.4804 12.137 15.187 11.6977 14.8171 11.3278C14.4472 10.9579 14.008 10.6646 13.5246 10.4646C13.0412 10.2647 12.5231 10.162 12 10.1625ZM12 11.73C12.4778 11.7292 12.9451 11.8702 13.3427 12.1352C13.7403 12.4001 14.0505 12.777 14.2338 13.2182C14.4172 13.6594 14.4655 14.1451 14.3728 14.6138C14.28 15.0825 14.0503 15.5132 13.7127 15.8513C13.3751 16.1894 12.9448 16.4198 12.4763 16.5133C12.0077 16.6068 11.5219 16.5592 11.0804 16.3765C10.6389 16.1938 10.2615 15.8843 9.996 15.4871C9.73047 15.0898 9.58874 14.6228 9.58874 14.145C9.58825 13.828 9.65025 13.5141 9.77121 13.2211C9.89216 12.9281 10.0697 12.6618 10.2936 12.4375C10.5176 12.2132 10.7836 12.0353 11.0764 11.9139C11.3692 11.7925 11.683 11.73 12 11.73Z" fill="#D3DFE6"/>
<path d="M14.4112 14.145C14.4105 14.6217 14.2685 15.0875 14.0031 15.4836C13.7377 15.8796 13.3608 16.1881 12.9201 16.37C12.4795 16.5519 11.9948 16.5992 11.5273 16.5057C11.0598 16.4122 10.6305 16.1823 10.2937 15.8449C9.95682 15.5075 9.72754 15.0779 9.63481 14.6103C9.54207 14.1426 9.59004 13.658 9.77266 13.2176C9.95527 12.7772 10.2643 12.4009 10.6608 12.1361C11.0572 11.8713 11.5233 11.73 12 11.73C12.317 11.73 12.6308 11.7925 12.9236 11.9139C13.2164 12.0353 13.4824 12.2132 13.7063 12.4375C13.9303 12.6618 14.1078 12.9281 14.2288 13.2211C14.3497 13.5141 14.4117 13.828 14.4112 14.145ZM5.58375 10.29C5.72786 10.29 5.87056 10.3184 6.00366 10.3737C6.13675 10.429 6.25763 10.5099 6.35936 10.612C6.46109 10.7141 6.54167 10.8353 6.59648 10.9685C6.65128 11.1018 6.67924 11.2446 6.67875 11.3887V16.8975C6.68749 17.0469 6.6656 17.1966 6.61443 17.3372C6.56326 17.4779 6.48388 17.6067 6.38117 17.7155C6.27846 17.8244 6.15458 17.9112 6.01713 17.9705C5.87968 18.0298 5.73157 18.0604 5.58187 18.0604C5.43218 18.0604 5.28407 18.0298 5.14662 17.9705C5.00917 17.9112 4.88529 17.8244 4.78258 17.7155C4.67987 17.6067 4.60049 17.4779 4.54932 17.3372C4.49814 17.1966 4.47626 17.0469 4.485 16.8975V11.3887C4.485 11.0973 4.60076 10.8179 4.80682 10.6118C5.01287 10.4057 5.29234 10.29 5.58375 10.29Z" fill="#F0F3F6"/>
<path d="M6.71625 6.46503H10.3087V7.87503H6.71625V6.46503Z" fill="#68777F"/>
<path d="M6.37499 3.57376H10.665C10.7771 3.57326 10.8882 3.59492 10.9919 3.63747C11.0956 3.68003 11.1899 3.74266 11.2693 3.82175C11.3488 3.90085 11.4118 3.99485 11.4548 4.09838C11.4978 4.2019 11.52 4.3129 11.52 4.42501V5.62501C11.52 5.73729 11.4979 5.84847 11.4549 5.9522C11.4119 6.05593 11.349 6.15019 11.2696 6.22958C11.1902 6.30898 11.0959 6.37195 10.9922 6.41492C10.8884 6.45789 10.7773 6.48001 10.665 6.48001H6.37499C6.26163 6.482 6.14901 6.46134 6.04375 6.41922C5.93848 6.3771 5.84269 6.31438 5.762 6.23473C5.68131 6.15509 5.61734 6.06013 5.57385 5.95542C5.53036 5.85072 5.50822 5.73838 5.50874 5.62501V4.42501C5.50821 4.3118 5.53037 4.19963 5.5739 4.09513C5.61744 3.99063 5.68147 3.89591 5.76221 3.81656C5.84296 3.73722 5.93878 3.67485 6.04403 3.63315C6.14927 3.59144 6.26181 3.57125 6.37499 3.57376Z" fill="#7A8892"/>
<path d="M15.3038 7.875V6.9525C15.3033 6.86453 15.3202 6.77733 15.3535 6.69591C15.3868 6.61449 15.4359 6.54046 15.4979 6.47808C15.56 6.4157 15.6337 6.3662 15.7149 6.33242C15.7962 6.29864 15.8833 6.28125 15.9713 6.28125H18.5963C18.7736 6.28224 18.9434 6.3534 19.0685 6.47918C19.1936 6.60495 19.2638 6.77512 19.2638 6.9525V7.875H15.3038Z" fill="#F0F3F6"/>
<path d="M17.1075 6.28125C17.2855 6.28125 17.4563 6.35197 17.5822 6.47785C17.708 6.60374 17.7788 6.77447 17.7788 6.9525V7.875H19.2788V6.9525C19.2788 6.77447 19.208 6.60374 19.0822 6.47785C18.9563 6.35197 18.7855 6.28125 18.6075 6.28125H17.1075Z" fill="#E1E7EC"/>
<path d="M17.7787 7.875C18.233 7.874 18.6691 8.05297 18.9917 8.37274C19.3142 8.69251 19.497 9.12705 19.5 9.58125V18.705C19.5005 18.9312 19.4563 19.1552 19.37 19.3643C19.2837 19.5733 19.1569 19.7633 18.997 19.9232C18.837 20.0831 18.6471 20.2099 18.438 20.2962C18.229 20.3826 18.0049 20.4267 17.7787 20.4263H19.2787C19.5049 20.4267 19.729 20.3826 19.938 20.2962C20.1471 20.2099 20.337 20.0831 20.497 19.9232C20.6569 19.7633 20.7837 19.5733 20.87 19.3643C20.9563 19.1552 21.0005 18.9312 21 18.705V9.58125C20.997 9.12705 20.8142 8.69251 20.4917 8.37274C20.1691 8.05297 19.733 7.874 19.2787 7.875H17.7787Z" fill="#68777F"/>
<path d="M5.58374 10.29C5.45631 10.2895 5.32965 10.3098 5.20874 10.35C5.42669 10.4229 5.61627 10.5624 5.75081 10.7487C5.88535 10.9351 5.95807 11.1589 5.95874 11.3887V16.8975C5.95864 17.1275 5.88614 17.3516 5.75152 17.538C5.6169 17.7244 5.427 17.8638 5.20874 17.9362C5.32965 17.9765 5.45631 17.9967 5.58374 17.9962C5.72799 17.9967 5.87091 17.9686 6.00424 17.9135C6.13756 17.8585 6.25864 17.7775 6.36046 17.6753C6.46229 17.5731 6.54285 17.4518 6.59748 17.3183C6.65211 17.1848 6.67973 17.0417 6.67874 16.8975V11.3887C6.67923 11.2446 6.65127 11.1018 6.59647 10.9685C6.54166 10.8353 6.46108 10.7141 6.35935 10.612C6.25762 10.51 6.13674 10.429 6.00365 10.3737C5.87055 10.3184 5.72785 10.29 5.58374 10.29Z" fill="#E1E7EC"/>
<path d="M9.6225 3.57374C9.7346 3.57324 9.8457 3.5949 9.94941 3.63746C10.0531 3.68002 10.1474 3.74264 10.2268 3.82173C10.3063 3.90083 10.3693 3.99484 10.4123 4.09836C10.4554 4.20188 10.4775 4.31288 10.4775 4.42499V5.62499C10.4775 5.85175 10.3874 6.06922 10.2271 6.22957C10.0667 6.38991 9.84926 6.47999 9.6225 6.47999H10.665C10.8918 6.47999 11.1092 6.38991 11.2696 6.22957C11.4299 6.06922 11.52 5.85175 11.52 5.62499V4.42499C11.52 4.31288 11.4979 4.20188 11.4548 4.09836C11.4118 3.99484 11.3488 3.90083 11.2693 3.82173C11.1899 3.74264 11.0956 3.68002 10.9919 3.63746C10.8882 3.5949 10.7771 3.57324 10.665 3.57374H9.6225Z" fill="#68777F"/>
<path d="M18.4425 14.6138C18.7014 14.6138 18.9113 14.4039 18.9113 14.145C18.9113 13.8861 18.7014 13.6763 18.4425 13.6763C18.1836 13.6763 17.9738 13.8861 17.9738 14.145C17.9738 14.4039 18.1836 14.6138 18.4425 14.6138Z" fill="#36364F"/>
<path d="M18.4425 12.8063C18.7014 12.8063 18.9113 12.5964 18.9113 12.3375C18.9113 12.0786 18.7014 11.8688 18.4425 11.8688C18.1836 11.8688 17.9738 12.0786 17.9738 12.3375C17.9738 12.5964 18.1836 12.8063 18.4425 12.8063Z" fill="#36364F"/>
<path d="M18.4425 16.4175C18.7014 16.4175 18.9113 16.2076 18.9113 15.9487C18.9113 15.6898 18.7014 15.48 18.4425 15.48C18.1836 15.48 17.9738 15.6898 17.9738 15.9487C17.9738 16.2076 18.1836 16.4175 18.4425 16.4175Z" fill="#36364F"/>
<path d="M4.72125 20.8012H19.2787C19.554 20.8012 19.8266 20.747 20.081 20.6417C20.3353 20.5363 20.5664 20.3819 20.761 20.1873C20.9557 19.9926 21.1101 19.7615 21.2154 19.5072C21.3208 19.2529 21.375 18.9803 21.375 18.705V9.58123C21.3743 9.0905 21.2017 8.61552 20.8873 8.23875C20.5729 7.86199 20.1364 7.60724 19.6537 7.51873V6.95248C19.6538 6.67565 19.544 6.4101 19.3486 6.21399C19.1532 6.01789 18.8881 5.90722 18.6112 5.90623H15.9862C15.849 5.90623 15.7132 5.93332 15.5864 5.98594C15.4597 6.03857 15.3446 6.11569 15.2478 6.2129C15.1509 6.3101 15.0742 6.42547 15.022 6.55238C14.9699 6.6793 14.9433 6.81526 14.9437 6.95248V7.49998H10.6838V6.83623C11.0035 6.83139 11.3088 6.70223 11.5349 6.47611C11.761 6.25 11.8902 5.94472 11.895 5.62498V4.42498C11.894 4.09941 11.764 3.78752 11.5334 3.55766C11.3029 3.3278 10.9906 3.19873 10.665 3.19873H6.375C6.05008 3.19972 5.73876 3.32923 5.509 3.55898C5.27925 3.78874 5.14974 4.10006 5.14875 4.42498V5.62498C5.14871 5.94698 5.27533 6.25607 5.50126 6.48551C5.72718 6.71494 6.03429 6.84631 6.35625 6.85123V7.49998H4.72125C4.16788 7.49997 3.63695 7.71876 3.24426 8.10865C2.85156 8.49853 2.62896 9.02787 2.625 9.58123V18.705C2.625 19.2609 2.84585 19.7941 3.23898 20.1873C3.6321 20.5804 4.16529 20.8012 4.72125 20.8012ZM15.6788 6.95248C15.6783 6.91375 15.6855 6.87532 15.6999 6.83939C15.7144 6.80347 15.7359 6.77078 15.7631 6.74322C15.7903 6.71566 15.8227 6.69378 15.8584 6.67885C15.8942 6.66392 15.9325 6.65623 15.9713 6.65623H18.5963C18.635 6.65623 18.6733 6.66392 18.7091 6.67885C18.7448 6.69378 18.7772 6.71566 18.8044 6.74322C18.8316 6.77078 18.8531 6.80347 18.8676 6.83939C18.882 6.87532 18.8892 6.91375 18.8888 6.95248V7.49998H15.6637L15.6788 6.95248ZM5.88375 5.62498V4.42498C5.88372 4.36116 5.89652 4.29798 5.92138 4.2392C5.94625 4.18041 5.98268 4.12723 6.0285 4.0828C6.07433 4.03838 6.12861 4.00362 6.18814 3.98059C6.24766 3.95755 6.31121 3.94672 6.375 3.94873H10.665C10.7917 3.94873 10.9132 3.99878 11.0031 4.08799C11.093 4.1772 11.144 4.29833 11.145 4.42498V5.62498C11.144 5.75198 11.0931 5.8735 11.0033 5.96331C10.9135 6.05311 10.792 6.104 10.665 6.10498H6.375C6.31103 6.10648 6.2474 6.09517 6.18786 6.07172C6.12831 6.04827 6.07406 6.01315 6.02829 5.96843C5.98252 5.92371 5.94616 5.87029 5.92133 5.8113C5.89651 5.75232 5.88373 5.68897 5.88375 5.62498ZM7.09125 6.85498H9.93375V7.49998H7.09125V6.85498ZM3.375 9.58123C3.37895 9.22679 3.52253 8.88821 3.77457 8.63897C4.02662 8.38973 4.36679 8.24996 4.72125 8.24998H19.2787C19.6332 8.24996 19.9734 8.38973 20.2254 8.63897C20.4775 8.88821 20.621 9.22679 20.625 9.58123V18.705C20.625 19.062 20.4832 19.4045 20.2307 19.6569C19.9782 19.9094 19.6358 20.0512 19.2787 20.0512H4.72125C4.3642 20.0512 4.02178 19.9094 3.76931 19.6569C3.51684 19.4045 3.375 19.062 3.375 18.705V9.58123Z" fill="#36364F"/>
<path d="M12 18.5025C12.8618 18.5025 13.7043 18.2469 14.4209 17.7681C15.1375 17.2893 15.696 16.6087 16.0258 15.8125C16.3556 15.0163 16.4419 14.1401 16.2738 13.2949C16.1056 12.4496 15.6906 11.6732 15.0812 11.0638C14.4718 10.4544 13.6954 10.0393 12.8501 9.87121C12.0048 9.70307 11.1287 9.78936 10.3324 10.1192C9.53622 10.449 8.85567 11.0075 8.37686 11.7241C7.89805 12.4407 7.64249 13.2831 7.64249 14.145C7.64447 15.3 8.1042 16.4072 8.92096 17.224C9.73772 18.0408 10.8449 18.5005 12 18.5025ZM12 10.5375C12.7135 10.5375 13.411 10.7491 14.0042 11.1455C14.5975 11.5418 15.0598 12.1053 15.3329 12.7644C15.6059 13.4236 15.6774 14.149 15.5382 14.8488C15.399 15.5486 15.0554 16.1913 14.5509 16.6959C14.0464 17.2004 13.4036 17.544 12.7038 17.6832C12.004 17.8224 11.2786 17.7509 10.6195 17.4779C9.96027 17.2048 9.39686 16.7424 9.00046 16.1492C8.60406 15.5559 8.39249 14.8585 8.39249 14.145C8.39348 13.1885 8.77387 12.2715 9.4502 11.5952C10.1265 10.9189 11.0435 10.5385 12 10.5375Z" fill="#36364F"/>
<path d="M12 16.9313C12.5521 16.932 13.0921 16.7689 13.5514 16.4626C14.0108 16.1563 14.369 15.7206 14.5807 15.2107C14.7923 14.7007 14.8479 14.1394 14.7403 13.5979C14.6328 13.0563 14.367 12.5589 13.9766 12.1684C13.5862 11.778 13.0887 11.5122 12.5471 11.4047C12.0056 11.2972 11.4443 11.3527 10.9343 11.5644C10.4244 11.776 9.98867 12.1342 9.68239 12.5936C9.3761 13.053 9.21301 13.5929 9.21375 14.145C9.21474 14.8837 9.50861 15.5918 10.0309 16.1141C10.5532 16.6364 11.2613 16.9303 12 16.9313ZM12 12.105C12.4036 12.1043 12.7984 12.2233 13.1344 12.447C13.4704 12.6707 13.7324 12.989 13.8874 13.3617C14.0424 13.7344 14.0833 14.1447 14.005 14.5407C13.9267 14.9367 13.7327 15.3005 13.4476 15.5862C13.1624 15.8719 12.7989 16.0665 12.4031 16.1455C12.0073 16.2246 11.5969 16.1844 11.2239 16.0301C10.851 15.8758 10.5321 15.6143 10.3078 15.2788C10.0835 14.9432 9.96375 14.5487 9.96375 14.145C9.96375 13.6046 10.1782 13.0863 10.5599 12.7038C10.9417 12.3214 11.4596 12.106 12 12.105ZM5.58375 18.375C5.97396 18.374 6.34785 18.2183 6.62342 17.942C6.899 17.6658 7.05375 17.2915 7.05375 16.9013V11.3888C7.06382 11.1892 7.03322 10.9897 6.9638 10.8024C6.89438 10.615 6.78759 10.4438 6.64992 10.299C6.51226 10.1542 6.34659 10.0389 6.16298 9.9601C5.97937 9.88132 5.78167 9.8407 5.58187 9.8407C5.38208 9.8407 5.18437 9.88132 5.00077 9.9601C4.81716 10.0389 4.65149 10.1542 4.51382 10.299C4.37616 10.4438 4.26937 10.615 4.19995 10.8024C4.13053 10.9897 4.09992 11.1892 4.11 11.3888V16.8975C4.10951 17.0914 4.14726 17.2834 4.2211 17.4626C4.29495 17.6419 4.40342 17.8048 4.54032 17.942C4.67722 18.0793 4.83985 18.1882 5.0189 18.2625C5.19795 18.3368 5.3899 18.375 5.58375 18.375ZM4.875 11.3888C4.86785 11.2896 4.88121 11.19 4.91424 11.0962C4.94728 11.0024 4.99929 10.9165 5.06702 10.8437C5.13475 10.7709 5.21675 10.7128 5.30792 10.6731C5.39908 10.6334 5.49744 10.613 5.59687 10.613C5.6963 10.613 5.79467 10.6334 5.88583 10.6731C5.97699 10.7128 6.059 10.7709 6.12673 10.8437C6.19446 10.9165 6.24647 11.0024 6.27951 11.0962C6.31254 11.19 6.3259 11.2896 6.31875 11.3888V16.8975C6.3259 16.9967 6.31254 17.0963 6.27951 17.1901C6.24647 17.2838 6.19446 17.3698 6.12673 17.4426C6.059 17.5154 5.97699 17.5734 5.88583 17.6131C5.79467 17.6528 5.6963 17.6733 5.59687 17.6733C5.49744 17.6733 5.39908 17.6528 5.30792 17.6131C5.21675 17.5734 5.13475 17.5154 5.06702 17.4426C4.99929 17.3698 4.94728 17.2838 4.91424 17.1901C4.88121 17.0963 4.86785 16.9967 4.875 16.8975V11.3888ZM7.125 5.39252H9.88125C9.98071 5.39252 10.0761 5.35301 10.1464 5.28268C10.2167 5.21236 10.2562 5.11697 10.2562 5.01752C10.2562 4.91806 10.2167 4.82268 10.1464 4.75235C10.0761 4.68203 9.98071 4.64252 9.88125 4.64252H7.125C7.02554 4.64252 6.93016 4.68203 6.85983 4.75235C6.78951 4.82268 6.75 4.91806 6.75 5.01752C6.75 5.11697 6.78951 5.21236 6.85983 5.28268C6.93016 5.35301 7.02554 5.39252 7.125 5.39252Z" fill="#36364F"/>
</svg>
