<svg width="20" height="17" viewBox="0 0 20 17" fill="none" xmlns="http://www.w3.org/2000/svg">
<path d="M6.43811 16.1098C13.6837 16.1098 17.6461 10.1048 17.6461 4.89758C17.6461 4.72704 17.6426 4.55729 17.6349 4.38823C18.4059 3.83015 19.0713 3.13916 19.5999 2.34765C18.8941 2.66156 18.1345 2.87284 17.3377 2.9681C18.151 2.48025 18.7754 1.70847 19.07 0.788507C18.2967 1.24739 17.4508 1.57088 16.5686 1.74503C15.8498 0.979063 14.8264 0.5 13.6932 0.5C11.5178 0.5 9.75377 2.26476 9.75377 4.4401C9.75377 4.74937 9.78839 5.05009 9.85598 5.33863C6.58203 5.17383 3.67893 3.60576 1.73602 1.2214C1.38608 1.82279 1.20202 2.50627 1.20263 3.20205C1.20263 4.56923 1.89805 5.77614 2.95561 6.48224C2.33005 6.46313 1.71822 6.2941 1.17157 5.98937C1.17099 6.00591 1.17099 6.02203 1.17099 6.03971C1.17099 7.94812 2.5288 9.54152 4.33126 9.90258C3.99273 9.9948 3.64341 10.0414 3.29255 10.0412C3.03916 10.0412 2.79221 10.0163 2.55221 9.9702C3.05372 11.5359 4.50792 12.6753 6.23206 12.7072C4.8838 13.7643 3.18542 14.394 1.33953 14.394C1.02552 14.3942 0.711768 14.376 0.399902 14.3394C2.14328 15.4572 4.21337 16.1095 6.4383 16.1095" fill="white"/>
</svg>
