<svg width="20" height="14" viewBox="0 0 20 14" fill="none" xmlns="http://www.w3.org/2000/svg">
<path d="M19.3294 2.912C19.3294 2.75283 19.3135 2.59365 19.2777 2.43845C19.019 1.44358 17.8849 1.00186 17.0134 1.56695C16.1618 2.12009 15.3261 2.68916 14.4824 3.25026C14.4148 3.29801 14.3432 3.34179 14.2437 3.40546C14.2437 3.09904 14.2437 2.82844 14.2437 2.56181C14.2357 1.25257 13.3165 0.337292 12.0112 0.333313C8.97089 0.333313 5.93058 0.333313 2.89027 0.333313C1.59695 0.333313 0.669733 1.25257 0.669733 2.54589C0.665753 5.30764 0.665753 8.07337 0.669733 10.8351C0.669733 12.1404 1.59695 13.0557 2.90619 13.0557C5.93854 13.0557 8.97487 13.0557 12.0112 13.0557C13.3284 13.0557 14.2437 12.1364 14.2477 10.8152C14.2477 10.5526 14.2477 10.2859 14.2477 9.98351C14.3591 10.0551 14.4307 10.0989 14.4984 10.1467C15.3062 10.6879 16.122 11.2251 16.9258 11.7663C17.4432 12.1165 17.9844 12.1842 18.5375 11.8897C19.0946 11.5952 19.3334 11.1017 19.3334 10.4809C19.3294 7.96194 19.3334 5.43498 19.3294 2.912ZM12.5445 10.7714C12.5445 11.2251 12.4091 11.3604 11.9475 11.3604C10.4513 11.3604 8.951 11.3604 7.45472 11.3604H2.9619C2.50029 11.3604 2.36498 11.2291 2.36498 10.7754V2.6215C2.36498 2.17182 2.50029 2.03652 2.94201 2.03652C5.95048 2.03652 8.95895 2.03652 11.9674 2.03652C12.4091 2.03652 12.5445 2.1758 12.5445 2.6215V10.7714ZM17.6183 10.1825C17.5506 10.1387 17.4989 10.1109 17.4511 10.079C16.4324 9.39853 15.4136 8.71804 14.3909 8.04551C14.2795 7.9699 14.2357 7.89429 14.2357 7.75899C14.2437 7.04269 14.2357 6.32638 14.2437 5.61406C14.2437 5.53447 14.2875 5.42703 14.3471 5.38723C15.4057 4.67093 16.4682 3.96656 17.5347 3.25822C17.5546 3.24628 17.5785 3.23434 17.6183 3.21842V10.1825Z" fill="white"/>
<path d="M6.60709 4.14166C6.61107 4.61522 6.24098 4.98133 5.74355 4.99326C5.46499 4.99724 5.18642 4.99326 4.90786 4.99326C4.62532 4.99326 4.3388 4.99724 4.05228 4.99326C3.57076 4.98133 3.20465 4.61124 3.20863 4.14564C3.20863 3.68004 3.57474 3.31393 4.06024 3.30597C4.62134 3.29801 5.18642 3.29801 5.74753 3.30597C6.237 3.31393 6.60311 3.67606 6.60709 4.14166Z" fill="white"/>
</svg>
